<svg width="250" height="162" viewBox="0 0 250 162" fill="none" xmlns="http://www.w3.org/2000/svg">
<g style="mix-blend-mode:darken">
<g filter="url(#filter0_i)">
<path d="M33.7281 53.064L38.8641 52.68C40.7841 52.68 41.7441 53.656 41.7441 55.608C41.7441 56.728 41.6001 58.472 41.3121 60.84C41.0241 63.208 40.8801 65.128 40.8801 66.6C40.0801 66.728 38.2881 67.208 35.5041 68.04C32.7521 68.872 30.4481 69.288 28.5921 69.288C24.0481 69.288 20.6081 67.88 18.2721 65.064C15.9681 62.248 14.8161 58.408 14.8161 53.544C14.8161 50.088 15.4401 46.92 16.6881 44.04C17.9681 41.16 19.8561 38.824 22.3521 37.032C24.8481 35.24 27.6001 34.344 30.6081 34.344C33.6481 34.344 36.1761 35.048 38.1921 36.456C40.2401 37.864 41.2641 39.768 41.2641 42.168C41.2641 43.512 40.8641 44.648 40.0641 45.576C39.2961 46.472 38.3041 46.92 37.0881 46.92C35.8721 46.92 35.0241 46.776 34.5441 46.488C34.6401 45.912 34.6881 45.336 34.6881 44.76C34.6881 43.064 34.2081 41.688 33.2481 40.632C32.2881 39.544 30.9281 39 29.1681 39C27.4081 39 25.7441 39.592 24.1761 40.776C23.2481 42.088 22.5281 43.88 22.0161 46.152C21.5041 48.424 21.2481 50.632 21.2481 52.776C21.2481 56.232 21.9201 59.08 23.2641 61.32C24.6081 63.528 26.7361 64.632 29.6481 64.632C31.7921 64.632 33.7921 64.008 35.6481 62.76C35.7761 61.512 35.8401 59.72 35.8401 57.384C34.5601 57.768 33.5681 57.96 32.8641 57.96C31.1041 57.96 30.2241 57.032 30.2241 55.176C30.2241 54.376 30.3841 53.528 30.7041 52.632C31.5681 52.92 32.5761 53.064 33.7281 53.064ZM54.5968 68.424C53.5728 68.808 52.4848 69 51.3328 69C50.1808 69 49.1728 68.632 48.3088 67.896C47.4768 67.16 47.0608 66.152 47.0608 64.872C47.0608 63.592 47.2208 61.144 47.5408 57.528C47.8608 53.88 48.0208 50.968 48.0208 48.792C48.0208 43.192 47.6848 38.76 47.0128 35.496C48.0368 35.112 49.1248 34.92 50.2768 34.92C51.4288 34.92 52.4208 35.288 53.2528 36.024C54.1168 36.76 54.5488 37.768 54.5488 39.048C54.5488 40.328 54.3888 42.792 54.0688 46.44C53.7488 50.056 53.5888 52.952 53.5888 55.128C53.5888 60.728 53.9248 65.16 54.5968 68.424ZM77.5562 53.064L82.6922 52.68C84.6122 52.68 85.5722 53.656 85.5722 55.608C85.5722 56.728 85.4282 58.472 85.1402 60.84C84.8522 63.208 84.7082 65.128 84.7082 66.6C83.9082 66.728 82.1162 67.208 79.3322 68.04C76.5802 68.872 74.2762 69.288 72.4202 69.288C67.8762 69.288 64.4362 67.88 62.1002 65.064C59.7962 62.248 58.6442 58.408 58.6442 53.544C58.6442 50.088 59.2682 46.92 60.5162 44.04C61.7962 41.16 63.6842 38.824 66.1802 37.032C68.6762 35.24 71.4282 34.344 74.4362 34.344C77.4762 34.344 80.0042 35.048 82.0202 36.456C84.0682 37.864 85.0922 39.768 85.0922 42.168C85.0922 43.512 84.6922 44.648 83.8922 45.576C83.1242 46.472 82.1322 46.92 80.9162 46.92C79.7002 46.92 78.8522 46.776 78.3722 46.488C78.4682 45.912 78.5162 45.336 78.5162 44.76C78.5162 43.064 78.0362 41.688 77.0762 40.632C76.1162 39.544 74.7562 39 72.9962 39C71.2362 39 69.5722 39.592 68.0042 40.776C67.0762 42.088 66.3562 43.88 65.8442 46.152C65.3322 48.424 65.0762 50.632 65.0762 52.776C65.0762 56.232 65.7482 59.08 67.0922 61.32C68.4362 63.528 70.5642 64.632 73.4762 64.632C75.6202 64.632 77.6202 64.008 79.4762 62.76C79.6042 61.512 79.6682 59.72 79.6682 57.384C78.3882 57.768 77.3962 57.96 76.6922 57.96C74.9322 57.96 74.0522 57.032 74.0522 55.176C74.0522 54.376 74.2122 53.528 74.5322 52.632C75.3962 52.92 76.4042 53.064 77.5562 53.064ZM108.025 53.064L113.161 52.68C115.081 52.68 116.041 53.656 116.041 55.608C116.041 56.728 115.897 58.472 115.609 60.84C115.321 63.208 115.177 65.128 115.177 66.6C114.377 66.728 112.585 67.208 109.801 68.04C107.049 68.872 104.745 69.288 102.889 69.288C98.3449 69.288 94.9049 67.88 92.5689 65.064C90.2649 62.248 89.1129 58.408 89.1129 53.544C89.1129 50.088 89.7369 46.92 90.9849 44.04C92.2649 41.16 94.1529 38.824 96.6489 37.032C99.1449 35.24 101.897 34.344 104.905 34.344C107.945 34.344 110.473 35.048 112.489 36.456C114.537 37.864 115.561 39.768 115.561 42.168C115.561 43.512 115.161 44.648 114.361 45.576C113.593 46.472 112.601 46.92 111.385 46.92C110.169 46.92 109.321 46.776 108.841 46.488C108.937 45.912 108.985 45.336 108.985 44.76C108.985 43.064 108.505 41.688 107.545 40.632C106.585 39.544 105.225 39 103.465 39C101.705 39 100.041 39.592 98.4729 40.776C97.5449 42.088 96.8249 43.88 96.3129 46.152C95.8009 48.424 95.5449 50.632 95.5449 52.776C95.5449 56.232 96.2169 59.08 97.5609 61.32C98.9049 63.528 101.033 64.632 103.945 64.632C106.089 64.632 108.089 64.008 109.945 62.76C110.073 61.512 110.137 59.72 110.137 57.384C108.857 57.768 107.865 57.96 107.161 57.96C105.401 57.96 104.521 57.032 104.521 55.176C104.521 54.376 104.681 53.528 105.001 52.632C105.865 52.92 106.873 53.064 108.025 53.064ZM128.894 68.424C127.87 68.808 126.782 69 125.63 69C124.478 69 123.47 68.632 122.606 67.896C121.774 67.16 121.358 66.152 121.358 64.872C121.358 63.592 121.518 61.144 121.838 57.528C122.158 53.88 122.318 50.968 122.318 48.792C122.318 43.192 121.982 38.76 121.31 35.496C122.334 35.112 123.422 34.92 124.574 34.92C125.726 34.92 126.718 35.288 127.55 36.024C128.414 36.76 128.846 37.768 128.846 39.048C128.846 40.328 128.686 42.792 128.366 46.44C128.046 50.056 127.886 52.952 127.886 55.128C127.886 60.728 128.222 65.16 128.894 68.424ZM135.917 34.776L146.045 34.92C151.293 34.92 155.133 34.728 157.565 34.344C157.917 35.016 158.093 35.784 158.093 36.648C158.093 37.512 157.709 38.296 156.941 39C156.173 39.672 155.245 40.008 154.157 40.008L148.637 39.384C148.637 39.608 148.557 40.6 148.397 42.36C147.949 46.68 147.725 51.016 147.725 55.368C147.725 59.72 148.061 64.072 148.733 68.424C147.677 68.808 146.573 69 145.421 69C144.269 69 143.277 68.68 142.445 68.04C141.613 67.368 141.197 66.376 141.197 65.064C141.197 63.72 141.357 61.368 141.677 58.008C141.997 54.648 142.157 51.384 142.157 48.216C142.157 45.016 141.997 42.04 141.677 39.288C137.805 39.48 134.781 40.024 132.605 40.92C132.221 40.184 132.029 39.368 132.029 38.472C132.029 37.544 132.397 36.696 133.133 35.928C133.869 35.16 134.797 34.776 135.917 34.776ZM158.513 37.416C159.281 35.752 160.689 34.92 162.737 34.92C166.545 34.92 170.145 40.392 173.537 51.336C175.521 48.36 177.217 45.336 178.625 42.264C180.065 39.16 180.785 36.616 180.785 34.632C184.177 34.632 185.873 35.528 185.873 37.32C185.873 38.568 185.105 40.424 183.569 42.888C182.033 45.352 180.369 47.896 178.577 50.52C176.817 53.112 175.777 55.016 175.457 56.232C175.361 57.48 175.313 59.016 175.313 60.84C175.313 62.664 175.537 65.192 175.985 68.424C174.961 68.808 173.873 69 172.721 69C171.569 69 170.561 68.632 169.697 67.896C168.865 67.16 168.449 66.232 168.449 65.112C168.449 63.96 168.641 61.048 169.025 56.376C166.561 46.776 163.057 40.456 158.513 37.416ZM225.247 47.016C226.015 46.76 226.911 46.632 227.935 46.632C228.991 46.632 229.919 47.016 230.719 47.784C231.519 48.52 231.919 49.56 231.919 50.904C231.919 54.648 230.063 58.408 226.351 62.184C229.679 64.008 232.607 64.92 235.135 64.92C235.135 67.768 233.775 69.192 231.055 69.192C228.527 69.192 225.423 68.088 221.743 65.88C217.935 68.344 214.191 69.576 210.511 69.576C207.663 69.576 205.471 68.856 203.935 67.416C202.399 65.944 201.631 63.816 201.631 61.032C201.631 57.448 203.359 54.216 206.815 51.336C205.279 48.68 204.511 46.344 204.511 44.328C204.511 41.576 205.647 39.208 207.919 37.224C210.223 35.24 212.831 34.248 215.743 34.248C217.727 34.248 219.311 34.744 220.495 35.736C221.679 36.696 222.271 38.088 222.271 39.912C222.271 41.384 221.983 42.552 221.407 43.416C220.863 44.248 220.431 44.872 220.111 45.288C219.823 45.704 219.311 46.216 218.575 46.824C217.871 47.432 217.343 47.88 216.991 48.168C216.671 48.424 216.063 48.888 215.167 49.56C214.271 50.2 213.695 50.616 213.439 50.808C215.423 53.784 218.415 56.728 222.415 59.64C224.655 57.016 225.775 54.456 225.775 51.96C225.775 50.264 225.599 48.616 225.247 47.016ZM209.167 54.792C208.111 56.264 207.583 57.816 207.583 59.448C207.583 63 209.327 64.776 212.815 64.776C214.543 64.776 216.271 64.28 217.999 63.288C214.319 60.472 211.375 57.64 209.167 54.792ZM216.895 43.08C217.183 42.536 217.327 41.896 217.327 41.16C217.327 40.392 217.087 39.752 216.607 39.24C216.127 38.728 215.375 38.472 214.351 38.472C213.359 38.472 212.415 38.728 211.519 39.24C210.847 40.168 210.511 41.384 210.511 42.888C210.511 44.392 210.911 46.024 211.711 47.784C214.591 45.832 216.319 44.264 216.895 43.08ZM81.5406 112.064L86.6766 111.68C88.5966 111.68 89.5566 112.656 89.5566 114.608C89.5566 115.728 89.4126 117.472 89.1246 119.84C88.8366 122.208 88.6926 124.128 88.6926 125.6C87.8926 125.728 86.1006 126.208 83.3166 127.04C80.5646 127.872 78.2606 128.288 76.4046 128.288C71.8606 128.288 68.4206 126.88 66.0846 124.064C63.7806 121.248 62.6286 117.408 62.6286 112.544C62.6286 109.088 63.2526 105.92 64.5006 103.04C65.7806 100.16 67.6686 97.824 70.1646 96.032C72.6606 94.24 75.4126 93.344 78.4206 93.344C81.4606 93.344 83.9886 94.048 86.0046 95.456C88.0526 96.864 89.0766 98.768 89.0766 101.168C89.0766 102.512 88.6766 103.648 87.8766 104.576C87.1086 105.472 86.1166 105.92 84.9006 105.92C83.6846 105.92 82.8366 105.776 82.3566 105.488C82.4526 104.912 82.5006 104.336 82.5006 103.76C82.5006 102.064 82.0206 100.688 81.0606 99.632C80.1006 98.544 78.7406 98 76.9806 98C75.2206 98 73.5566 98.592 71.9886 99.776C71.0606 101.088 70.3406 102.88 69.8286 105.152C69.3166 107.424 69.0606 109.632 69.0606 111.776C69.0606 115.232 69.7326 118.08 71.0766 120.32C72.4206 122.528 74.5486 123.632 77.4606 123.632C79.6046 123.632 81.6046 123.008 83.4606 121.76C83.5886 120.512 83.6526 118.72 83.6526 116.384C82.3726 116.768 81.3806 116.96 80.6766 116.96C78.9166 116.96 78.0366 116.032 78.0366 114.176C78.0366 113.376 78.1966 112.528 78.5166 111.632C79.3806 111.92 80.3886 112.064 81.5406 112.064ZM94.8253 94.496C95.8493 94.112 96.9533 93.92 98.1373 93.92C100.985 93.92 102.409 95.216 102.409 97.808C102.409 99.216 102.249 101.536 101.929 104.768C101.609 107.968 101.449 111.296 101.449 114.752C101.449 118.208 101.561 121.072 101.785 123.344C102.649 123.44 103.513 123.488 104.377 123.488C108.601 123.488 112.313 122.784 115.513 121.376C115.897 122.24 116.089 123.216 116.089 124.304C116.089 125.392 115.705 126.336 114.937 127.136C114.201 127.904 113.289 128.288 112.201 128.288C109.929 128.288 104.953 128.096 97.2733 127.712C96.6653 127.68 96.1373 127.504 95.6893 127.184C95.2413 126.832 95.0173 126.4 95.0173 125.888C95.0173 124.192 95.1453 121.328 95.4013 117.296C95.6893 113.264 95.8333 109.552 95.8333 106.16C95.8333 102.736 95.4973 98.848 94.8253 94.496ZM127.354 94.304C128.698 93.856 129.914 93.632 131.002 93.632C132.666 93.632 133.962 94.224 134.89 95.408C135.818 96.56 136.538 98.208 137.05 100.352C137.21 100.992 137.53 102.4 138.01 104.576C138.522 106.752 138.938 108.512 139.258 109.856C140.25 114.048 141.146 117.296 141.946 119.6C142.778 121.904 144.09 123.744 145.882 125.12C145.498 126.08 144.858 126.848 143.962 127.424C143.098 128 142.154 128.288 141.13 128.288C138.794 128.288 137.082 126.528 135.994 123.008C135.482 121.376 135.018 119.776 134.602 118.208C133.482 118.592 132.09 118.784 130.426 118.784C128.794 118.784 126.778 118.608 124.378 118.256C123.386 122.128 122.89 125.04 122.89 126.992C122.89 127.408 122.906 127.712 122.938 127.904C122.522 127.968 121.818 128 120.826 128C119.834 128 118.954 127.696 118.186 127.088C117.45 126.448 117.082 125.552 117.082 124.4C117.082 122.8 118.618 118.112 121.69 110.336C124.762 102.56 126.65 97.216 127.354 94.304ZM125.482 114.224C126.762 114.384 128.058 114.464 129.37 114.464C130.714 114.464 132.138 114.32 133.642 114.032C133.354 112.72 132.378 107.696 130.714 98.96C128.73 104.112 126.986 109.2 125.482 114.224ZM183.525 96.608L183.285 104.528C183.285 108.88 183.413 112.784 183.669 116.24C183.925 119.664 184.501 123.392 185.397 127.424C184.693 128 183.573 128.288 182.037 128.288C179.061 128.288 177.573 126.992 177.573 124.4C177.573 122.256 177.669 118.976 177.861 114.56C178.085 110.144 178.197 106.688 178.197 104.192C176.469 106.688 174.645 109.776 172.725 113.456C170.837 117.104 169.893 119.344 169.893 120.176C169.893 121.008 169.973 121.648 170.133 122.096C169.429 122.544 168.485 122.768 167.301 122.768C166.149 122.768 165.173 122.448 164.373 121.808C163.605 121.168 162.949 120.288 162.405 119.168C161.893 118.048 160.965 115.856 159.621 112.592C158.309 109.296 157.109 106.464 156.021 104.096C155.189 109.248 154.773 113.808 154.773 117.776C154.773 121.744 154.901 124.96 155.157 127.424C154.133 127.808 153.109 128 152.085 128C150.037 128 149.013 126.976 149.013 124.928C149.013 123.36 149.365 120.24 150.069 115.568C150.805 110.864 151.173 106.896 151.173 103.664C151.173 100.432 150.997 97.408 150.645 94.592C152.373 94.144 153.717 93.92 154.677 93.92C156.437 93.92 157.621 94.544 158.229 95.792C159.189 97.808 160.597 101.024 162.453 105.44C164.341 109.824 165.877 113.2 167.061 115.568C167.381 114.896 168.117 113.456 169.269 111.248C170.453 109.008 171.429 107.104 172.197 105.536C172.997 103.936 173.797 102.048 174.597 99.872C175.429 97.664 175.957 95.744 176.181 94.112C177.333 93.792 178.453 93.632 179.541 93.632C180.661 93.632 181.605 93.872 182.373 94.352C183.141 94.832 183.525 95.584 183.525 96.608Z" fill="#333333"/>
</g>
<path d="M33.7281 53.064V53.564H33.7467L33.7653 53.5626L33.7281 53.064ZM38.8641 52.68V52.18H38.8454L38.8268 52.1814L38.8641 52.68ZM41.3121 60.84L41.8084 60.9004L41.8084 60.9004L41.3121 60.84ZM40.8801 66.6L40.9591 67.0937L41.3801 67.0264V66.6H40.8801ZM35.5041 68.04L35.3609 67.5609L35.3594 67.5614L35.5041 68.04ZM18.2721 65.064L17.8851 65.3806L17.8872 65.3832L18.2721 65.064ZM16.6881 44.04L16.2311 43.8369L16.2293 43.8412L16.6881 44.04ZM22.3521 37.032L22.6437 37.4382L22.6437 37.4382L22.3521 37.032ZM38.1921 36.456L37.9058 36.8659L37.9088 36.868L38.1921 36.456ZM40.0641 45.576L39.6854 45.2495L39.6844 45.2506L40.0641 45.576ZM34.5441 46.488L34.0509 46.4058L33.9949 46.7416L34.2868 46.9167L34.5441 46.488ZM33.2481 40.632L32.8731 40.9628L32.8781 40.9683L33.2481 40.632ZM24.1761 40.776L23.8748 40.377L23.8127 40.4238L23.7679 40.4873L24.1761 40.776ZM22.0161 46.152L22.5038 46.2619L22.5038 46.2619L22.0161 46.152ZM23.2641 61.32L22.8353 61.5773L22.837 61.58L23.2641 61.32ZM35.6481 62.76L35.9271 63.1749L36.1215 63.0441L36.1455 62.811L35.6481 62.76ZM35.8401 57.384H36.3401V56.712L35.6964 56.9051L35.8401 57.384ZM30.7041 52.632L30.8622 52.1577L30.3978 52.0029L30.2332 52.4638L30.7041 52.632ZM33.7653 53.5626L38.9013 53.1786L38.8268 52.1814L33.6908 52.5654L33.7653 53.5626ZM38.8641 53.18C39.7449 53.18 40.3141 53.4033 40.6676 53.7626C41.0226 54.1235 41.2441 54.707 41.2441 55.608H42.2441C42.2441 54.557 41.9855 53.6765 41.3805 53.0614C40.774 52.4447 39.9032 52.18 38.8641 52.18V53.18ZM41.2441 55.608C41.2441 56.6959 41.1034 58.4145 40.8157 60.7796L41.8084 60.9004C42.0968 58.5294 42.2441 56.7601 42.2441 55.608H41.2441ZM40.8157 60.7796C40.5266 63.157 40.3801 65.0994 40.3801 66.6H41.3801C41.3801 65.1566 41.5215 63.259 41.8084 60.9004L40.8157 60.7796ZM40.8011 66.1063C39.9618 66.2406 38.1354 66.7318 35.3609 67.5609L35.6472 68.5191C38.4407 67.6842 40.1984 67.2154 40.9591 67.0937L40.8011 66.1063ZM35.3594 67.5614C32.6315 68.3861 30.3799 68.788 28.5921 68.788V69.788C30.5162 69.788 32.8726 69.3579 35.6488 68.5186L35.3594 67.5614ZM28.5921 68.788C24.1575 68.788 20.8754 67.4191 18.6569 64.7448L17.8872 65.3832C20.3408 68.3409 23.9386 69.788 28.5921 69.788V68.788ZM18.659 64.7474C16.4495 62.0468 15.3161 58.3316 15.3161 53.544H14.3161C14.3161 58.4844 15.4866 62.4492 17.8851 65.3806L18.659 64.7474ZM15.3161 53.544C15.3161 50.1494 15.9287 47.05 17.1468 44.2388L16.2293 43.8412C14.9515 46.79 14.3161 50.0266 14.3161 53.544H15.3161ZM17.145 44.2431C18.3899 41.4421 20.2218 39.177 22.6437 37.4382L22.0605 36.6258C19.4904 38.471 17.5463 40.8779 16.2312 43.8369L17.145 44.2431ZM22.6437 37.4382C25.0566 35.7058 27.7071 34.844 30.6081 34.844V33.844C27.4931 33.844 24.6395 34.7742 22.0605 36.6258L22.6437 37.4382ZM30.6081 34.844C33.5701 34.844 35.9918 35.5291 37.9058 36.8659L38.4784 36.0461C36.3604 34.5668 33.726 33.844 30.6081 33.844V34.844ZM37.9088 36.868C39.8269 38.1867 40.7641 39.9395 40.7641 42.168H41.7641C41.7641 39.5965 40.6533 37.5413 38.4753 36.044L37.9088 36.868ZM40.7641 42.168C40.7641 43.4047 40.3993 44.4213 39.6854 45.2495L40.4428 45.9025C41.3288 44.8747 41.7641 43.6193 41.7641 42.168H40.7641ZM39.6844 45.2506C39.0147 46.032 38.1632 46.42 37.0881 46.42V47.42C38.4449 47.42 39.5774 46.912 40.4437 45.9014L39.6844 45.2506ZM37.0881 46.42C35.8793 46.42 35.1543 46.2711 34.8013 46.0593L34.2868 46.9167C34.8938 47.2809 35.8649 47.42 37.0881 47.42V46.42ZM35.0373 46.5702C35.1377 45.9674 35.1881 45.3639 35.1881 44.76H34.1881C34.1881 45.3081 34.1424 45.8566 34.0509 46.4058L35.0373 46.5702ZM35.1881 44.76C35.1881 42.9644 34.677 41.4605 33.618 40.2957L32.8781 40.9683C33.7391 41.9155 34.1881 43.1636 34.1881 44.76H35.1881ZM33.623 40.3012C32.5481 39.083 31.0383 38.5 29.1681 38.5V39.5C30.8179 39.5 32.028 40.005 32.8731 40.9628L33.623 40.3012ZM29.1681 38.5C27.2867 38.5 25.5189 39.1355 23.8748 40.377L24.4774 41.175C25.9692 40.0485 27.5294 39.5 29.1681 39.5V38.5ZM23.7679 40.4873C22.7888 41.8715 22.0488 43.7323 21.5283 46.0421L22.5038 46.2619C23.0073 44.0277 23.7074 42.3045 24.5843 41.0647L23.7679 40.4873ZM21.5283 46.0421C21.0089 48.3471 20.7481 50.592 20.7481 52.776H21.7481C21.7481 50.672 21.9993 48.5009 22.5038 46.2619L21.5283 46.0421ZM20.7481 52.776C20.7481 56.2941 21.4319 59.2383 22.8353 61.5772L23.6928 61.0628C22.4082 58.9217 21.7481 56.1698 21.7481 52.776H20.7481ZM22.837 61.58C24.2846 63.9582 26.5879 65.132 29.6481 65.132V64.132C26.8842 64.132 24.9315 63.0978 23.6912 61.06L22.837 61.58ZM29.6481 65.132C31.8959 65.132 33.9924 64.4758 35.9271 63.1749L35.3691 62.3451C33.5918 63.5402 31.6882 64.132 29.6481 64.132V65.132ZM36.1455 62.811C36.2761 61.5374 36.3401 59.7252 36.3401 57.384H35.3401C35.3401 59.7148 35.276 61.4866 35.1507 62.709L36.1455 62.811ZM35.6964 56.9051C34.4291 57.2853 33.4935 57.46 32.8641 57.46V58.46C33.6426 58.46 34.691 58.2507 35.9837 57.8629L35.6964 56.9051ZM32.8641 57.46C32.0681 57.46 31.5612 57.2515 31.2469 56.92C30.9278 56.5835 30.7241 56.0334 30.7241 55.176H29.7241C29.7241 56.1746 29.9603 57.0165 30.5213 57.608C31.0869 58.2045 31.9 58.46 32.8641 58.46V57.46ZM30.7241 55.176C30.7241 54.443 30.8707 53.6521 31.1749 52.8002L30.2332 52.4638C29.8975 53.4038 29.7241 54.309 29.7241 55.176H30.7241ZM30.5459 53.1063C31.4724 53.4152 32.5359 53.564 33.7281 53.564V52.564C32.6162 52.564 31.6637 52.4248 30.8622 52.1577L30.5459 53.1063ZM54.5968 68.424L54.7724 68.8922L55.1728 68.742L55.0865 68.3232L54.5968 68.424ZM48.3088 67.896L47.9775 68.2706L47.9846 68.2766L48.3088 67.896ZM47.5408 57.528L48.0389 57.5721L48.0389 57.5717L47.5408 57.528ZM47.0128 35.496L46.8373 35.0278L46.4369 35.178L46.5231 35.5968L47.0128 35.496ZM53.2528 36.024L52.9215 36.3986L52.9286 36.4046L53.2528 36.024ZM54.0688 46.44L54.5669 46.4841L54.5669 46.4837L54.0688 46.44ZM54.4213 67.9558C53.4563 68.3177 52.4281 68.5 51.3328 68.5V69.5C52.5415 69.5 53.6893 69.2983 54.7724 68.8922L54.4213 67.9558ZM51.3328 68.5C50.2977 68.5 49.4051 68.1731 48.633 67.5154L47.9846 68.2766C48.9405 69.0909 50.0639 69.5 51.3328 69.5V68.5ZM48.6401 67.5215C47.9322 66.8953 47.5608 66.0329 47.5608 64.872H46.5608C46.5608 66.2711 47.0214 67.4247 47.9775 68.2705L48.6401 67.5215ZM47.5608 64.872C47.5608 63.6174 47.7186 61.1908 48.0389 57.5721L47.0428 57.4839C46.723 61.0972 46.5608 63.5666 46.5608 64.872H47.5608ZM48.0389 57.5717C48.3594 53.9175 48.5208 50.9891 48.5208 48.792H47.5208C47.5208 50.9469 47.3622 53.8425 47.0427 57.4843L48.0389 57.5717ZM48.5208 48.792C48.5208 43.1777 48.1844 38.7072 47.5025 35.3952L46.5231 35.5968C47.1852 38.8128 47.5208 43.2063 47.5208 48.792H48.5208ZM47.1884 35.9642C48.1533 35.6023 49.1815 35.42 50.2768 35.42V34.42C49.0681 34.42 47.9203 34.6217 46.8373 35.0278L47.1884 35.9642ZM50.2768 35.42C51.3117 35.42 52.1846 35.7466 52.9215 36.3985L53.5841 35.6495C52.657 34.8294 51.5459 34.42 50.2768 34.42V35.42ZM52.9286 36.4046C53.666 37.0328 54.0488 37.8935 54.0488 39.048H55.0488C55.0488 37.6425 54.5676 36.4872 53.577 35.6434L52.9286 36.4046ZM54.0488 39.048C54.0488 40.3027 53.891 42.7454 53.5707 46.3963L54.5669 46.4837C54.8866 42.8386 55.0488 40.3533 55.0488 39.048H54.0488ZM53.5708 46.3959C53.2502 50.0183 53.0888 52.9308 53.0888 55.128H54.0888C54.0888 52.9732 54.2474 50.0937 54.5669 46.4841L53.5708 46.3959ZM53.0888 55.128C53.0888 60.7423 53.4252 65.2128 54.1071 68.5248L55.0865 68.3232C54.4244 65.1072 54.0888 60.7137 54.0888 55.128H53.0888ZM77.5562 53.064V53.564H77.5749L77.5935 53.5626L77.5562 53.064ZM82.6922 52.68V52.18H82.6735L82.6549 52.1814L82.6922 52.68ZM85.1402 60.84L85.6365 60.9004L85.6365 60.9004L85.1402 60.84ZM84.7082 66.6L84.7872 67.0937L85.2082 67.0264V66.6H84.7082ZM79.3322 68.04L79.189 67.5609L79.1875 67.5614L79.3322 68.04ZM62.1002 65.064L61.7132 65.3806L61.7154 65.3832L62.1002 65.064ZM60.5162 44.04L60.0593 43.8369L60.0574 43.8412L60.5162 44.04ZM66.1802 37.032L66.4718 37.4382L66.4718 37.4382L66.1802 37.032ZM82.0202 36.456L81.7339 36.8659L81.7369 36.868L82.0202 36.456ZM83.8922 45.576L83.5135 45.2495L83.5126 45.2506L83.8922 45.576ZM78.3722 46.488L77.879 46.4058L77.823 46.7416L78.1149 46.9167L78.3722 46.488ZM77.0762 40.632L76.7012 40.9628L76.7062 40.9683L77.0762 40.632ZM68.0042 40.776L67.7029 40.377L67.6409 40.4238L67.596 40.4873L68.0042 40.776ZM65.8442 46.152L66.332 46.2619L66.332 46.2619L65.8442 46.152ZM67.0922 61.32L66.6634 61.5773L66.6651 61.58L67.0922 61.32ZM79.4762 62.76L79.7552 63.1749L79.9497 63.0441L79.9736 62.811L79.4762 62.76ZM79.6682 57.384H80.1682V56.712L79.5245 56.9051L79.6682 57.384ZM74.5322 52.632L74.6903 52.1577L74.2259 52.0029L74.0613 52.4638L74.5322 52.632ZM77.5935 53.5626L82.7295 53.1786L82.6549 52.1814L77.5189 52.5654L77.5935 53.5626ZM82.6922 53.18C83.573 53.18 84.1422 53.4033 84.4957 53.7626C84.8507 54.1235 85.0722 54.707 85.0722 55.608H86.0722C86.0722 54.557 85.8137 53.6765 85.2087 53.0614C84.6021 52.4447 83.7314 52.18 82.6922 52.18V53.18ZM85.0722 55.608C85.0722 56.6959 84.9315 58.4145 84.6438 60.7796L85.6365 60.9004C85.9249 58.5294 86.0722 56.7601 86.0722 55.608H85.0722ZM84.6438 60.7796C84.3547 63.157 84.2082 65.0994 84.2082 66.6H85.2082C85.2082 65.1566 85.3497 63.259 85.6365 60.9004L84.6438 60.7796ZM84.6292 66.1063C83.7899 66.2406 81.9636 66.7318 79.189 67.5609L79.4754 68.5191C82.2688 67.6842 84.0265 67.2154 84.7872 67.0937L84.6292 66.1063ZM79.1875 67.5614C76.4597 68.3861 74.208 68.788 72.4202 68.788V69.788C74.3443 69.788 76.7007 69.3579 79.4769 68.5186L79.1875 67.5614ZM72.4202 68.788C67.9857 68.788 64.7035 67.4191 62.485 64.7448L61.7154 65.3832C64.1689 68.3409 67.7667 69.788 72.4202 69.788V68.788ZM62.4872 64.7474C60.2776 62.0468 59.1442 58.3316 59.1442 53.544H58.1442C58.1442 58.4844 59.3147 62.4492 61.7132 65.3806L62.4872 64.7474ZM59.1442 53.544C59.1442 50.1494 59.7568 47.05 60.975 44.2388L60.0574 43.8412C58.7796 46.79 58.1442 50.0266 58.1442 53.544H59.1442ZM60.9731 44.2431C62.218 41.4421 64.0499 39.177 66.4718 37.4382L65.8886 36.6258C63.3185 38.471 61.3744 40.8779 60.0593 43.8369L60.9731 44.2431ZM66.4718 37.4382C68.8848 35.7058 71.5352 34.844 74.4362 34.844V33.844C71.3212 33.844 68.4676 34.7742 65.8886 36.6258L66.4718 37.4382ZM74.4362 34.844C77.3982 34.844 79.8199 35.5291 81.7339 36.8659L82.3065 36.0461C80.1885 34.5668 77.5541 33.844 74.4362 33.844V34.844ZM81.7369 36.868C83.655 38.1867 84.5922 39.9395 84.5922 42.168H85.5922C85.5922 39.5965 84.4814 37.5413 82.3035 36.044L81.7369 36.868ZM84.5922 42.168C84.5922 43.4047 84.2274 44.4213 83.5135 45.2495L84.2709 45.9025C85.1569 44.8747 85.5922 43.6193 85.5922 42.168H84.5922ZM83.5126 45.2506C82.8428 46.032 81.9913 46.42 80.9162 46.42V47.42C82.2731 47.42 83.4056 46.912 84.2718 45.9014L83.5126 45.2506ZM80.9162 46.42C79.7074 46.42 78.9825 46.2711 78.6294 46.0593L78.1149 46.9167C78.7219 47.2809 79.693 47.42 80.9162 47.42V46.42ZM78.8654 46.5702C78.9659 45.9674 79.0162 45.3639 79.0162 44.76H78.0162C78.0162 45.3081 77.9705 45.8566 77.879 46.4058L78.8654 46.5702ZM79.0162 44.76C79.0162 42.9644 78.5051 41.4605 77.4462 40.2957L76.7062 40.9683C77.5672 41.9155 78.0162 43.1636 78.0162 44.76H79.0162ZM77.4511 40.3012C76.3762 39.083 74.8664 38.5 72.9962 38.5V39.5C74.646 39.5 75.8562 40.005 76.7013 40.9628L77.4511 40.3012ZM72.9962 38.5C71.1148 38.5 69.347 39.1355 67.7029 40.377L68.3055 41.175C69.7973 40.0485 71.3575 39.5 72.9962 39.5V38.5ZM67.596 40.4873C66.6169 41.8715 65.8769 43.7323 65.3564 46.0421L66.332 46.2619C66.8354 44.0277 67.5355 42.3045 68.4124 41.0647L67.596 40.4873ZM65.3564 46.0421C64.837 48.3471 64.5762 50.592 64.5762 52.776H65.5762C65.5762 50.672 65.8274 48.5009 66.332 46.2619L65.3564 46.0421ZM64.5762 52.776C64.5762 56.2941 65.2601 59.2383 66.6634 61.5772L67.5209 61.0628C66.2363 58.9217 65.5762 56.1698 65.5762 52.776H64.5762ZM66.6651 61.58C68.1127 63.9582 70.416 65.132 73.4762 65.132V64.132C70.7124 64.132 68.7597 63.0978 67.5193 61.06L66.6651 61.58ZM73.4762 65.132C75.724 65.132 77.8205 64.4758 79.7552 63.1749L79.1972 62.3451C77.4199 63.5402 75.5164 64.132 73.4762 64.132V65.132ZM79.9736 62.811C80.1042 61.5374 80.1682 59.7252 80.1682 57.384H79.1682C79.1682 59.7148 79.1042 61.4866 78.9788 62.709L79.9736 62.811ZM79.5245 56.9051C78.2573 57.2853 77.3217 57.46 76.6922 57.46V58.46C77.4707 58.46 78.5191 58.2507 79.8119 57.8629L79.5245 56.9051ZM76.6922 57.46C75.8962 57.46 75.3894 57.2515 75.075 56.92C74.7559 56.5835 74.5522 56.0334 74.5522 55.176H73.5522C73.5522 56.1746 73.7885 57.0165 74.3494 57.608C74.915 58.2045 75.7281 58.46 76.6922 58.46V57.46ZM74.5522 55.176C74.5522 54.443 74.6988 53.6521 75.0031 52.8002L74.0613 52.4638C73.7256 53.4038 73.5522 54.309 73.5522 55.176H74.5522ZM74.3741 53.1063C75.3005 53.4152 76.364 53.564 77.5562 53.564V52.564C76.4444 52.564 75.4919 52.4248 74.6903 52.1577L74.3741 53.1063ZM108.025 53.064V53.564H108.044L108.062 53.5626L108.025 53.064ZM113.161 52.68V52.18H113.142L113.124 52.1814L113.161 52.68ZM115.609 60.84L116.105 60.9004L116.105 60.9004L115.609 60.84ZM115.177 66.6L115.256 67.0937L115.677 67.0264V66.6H115.177ZM109.801 68.04L109.658 67.5609L109.656 67.5614L109.801 68.04ZM92.5689 65.064L92.182 65.3806L92.1841 65.3832L92.5689 65.064ZM90.9849 44.04L90.528 43.8369L90.5262 43.8412L90.9849 44.04ZM96.6489 37.032L96.9405 37.4382L96.9405 37.4382L96.6489 37.032ZM112.489 36.456L112.203 36.8659L112.206 36.868L112.489 36.456ZM114.361 45.576L113.982 45.2495L113.981 45.2506L114.361 45.576ZM108.841 46.488L108.348 46.4058L108.292 46.7416L108.584 46.9167L108.841 46.488ZM107.545 40.632L107.17 40.9628L107.175 40.9683L107.545 40.632ZM98.4729 40.776L98.1716 40.377L98.1096 40.4238L98.0647 40.4873L98.4729 40.776ZM96.3129 46.152L96.8007 46.2619L96.8007 46.2619L96.3129 46.152ZM97.5609 61.32L97.1322 61.5773L97.1338 61.58L97.5609 61.32ZM109.945 62.76L110.224 63.1749L110.418 63.0441L110.442 62.811L109.945 62.76ZM110.137 57.384H110.637V56.712L109.993 56.9051L110.137 57.384ZM105.001 52.632L105.159 52.1577L104.695 52.0029L104.53 52.4638L105.001 52.632ZM108.062 53.5626L113.198 53.1786L113.124 52.1814L107.988 52.5654L108.062 53.5626ZM113.161 53.18C114.042 53.18 114.611 53.4033 114.964 53.7626C115.319 54.1235 115.541 54.707 115.541 55.608H116.541C116.541 54.557 116.282 53.6765 115.677 53.0614C115.071 52.4447 114.2 52.18 113.161 52.18V53.18ZM115.541 55.608C115.541 56.6959 115.4 58.4145 115.113 60.7796L116.105 60.9004C116.394 58.5294 116.541 56.7601 116.541 55.608H115.541ZM115.113 60.7796C114.823 63.157 114.677 65.0994 114.677 66.6H115.677C115.677 65.1566 115.818 63.259 116.105 60.9004L115.113 60.7796ZM115.098 66.1063C114.259 66.2406 112.432 66.7318 109.658 67.5609L109.944 68.5191C112.738 67.6842 114.495 67.2154 115.256 67.0937L115.098 66.1063ZM109.656 67.5614C106.928 68.3861 104.677 68.788 102.889 68.788V69.788C104.813 69.788 107.169 69.3579 109.946 68.5186L109.656 67.5614ZM102.889 68.788C98.4544 68.788 95.1722 67.4191 92.9538 64.7448L92.1841 65.3832C94.6376 68.3409 98.2355 69.788 102.889 69.788V68.788ZM92.9559 64.7474C90.7464 62.0468 89.6129 58.3316 89.6129 53.544H88.6129C88.6129 58.4844 89.7835 62.4492 92.182 65.3806L92.9559 64.7474ZM89.6129 53.544C89.6129 50.1494 90.2255 47.05 91.4437 44.2388L90.5262 43.8412C89.2483 46.79 88.6129 50.0266 88.6129 53.544H89.6129ZM91.4418 44.2431C92.6867 41.4421 94.5186 39.177 96.9405 37.4382L96.3573 36.6258C93.7873 38.471 91.8431 40.8779 90.528 43.8369L91.4418 44.2431ZM96.9405 37.4382C99.3535 35.7058 102.004 34.844 104.905 34.844V33.844C101.79 33.844 98.9364 34.7742 96.3573 36.6258L96.9405 37.4382ZM104.905 34.844C107.867 34.844 110.289 35.5291 112.203 36.8659L112.775 36.0461C110.657 34.5668 108.023 33.844 104.905 33.844V34.844ZM112.206 36.868C114.124 38.1867 115.061 39.9395 115.061 42.168H116.061C116.061 39.5965 114.95 37.5413 112.772 36.044L112.206 36.868ZM115.061 42.168C115.061 43.4047 114.696 44.4213 113.982 45.2495L114.74 45.9025C115.626 44.8747 116.061 43.6193 116.061 42.168H115.061ZM113.981 45.2506C113.312 46.032 112.46 46.42 111.385 46.42V47.42C112.742 47.42 113.874 46.912 114.741 45.9014L113.981 45.2506ZM111.385 46.42C110.176 46.42 109.451 46.2711 109.098 46.0593L108.584 46.9167C109.191 47.2809 110.162 47.42 111.385 47.42V46.42ZM109.334 46.5702C109.435 45.9674 109.485 45.3639 109.485 44.76H108.485C108.485 45.3081 108.439 45.8566 108.348 46.4058L109.334 46.5702ZM109.485 44.76C109.485 42.9644 108.974 41.4605 107.915 40.2957L107.175 40.9683C108.036 41.9155 108.485 43.1636 108.485 44.76H109.485ZM107.92 40.3012C106.845 39.083 105.335 38.5 103.465 38.5V39.5C105.115 39.5 106.325 40.005 107.17 40.9628L107.92 40.3012ZM103.465 38.5C101.584 38.5 99.8158 39.1355 98.1716 40.377L98.7742 41.175C100.266 40.0485 101.826 39.5 103.465 39.5V38.5ZM98.0647 40.4873C97.0856 41.8715 96.3457 43.7323 95.8252 46.0421L96.8007 46.2619C97.3042 44.0277 98.0042 42.3045 98.8811 41.0647L98.0647 40.4873ZM95.8252 46.0421C95.3057 48.3471 95.0449 50.592 95.0449 52.776H96.0449C96.0449 50.672 96.2961 48.5009 96.8007 46.2619L95.8252 46.0421ZM95.0449 52.776C95.0449 56.2941 95.7288 59.2383 97.1322 61.5772L97.9897 61.0628C96.7051 58.9217 96.0449 56.1698 96.0449 52.776H95.0449ZM97.1338 61.58C98.5815 63.9582 100.885 65.132 103.945 65.132V64.132C101.181 64.132 99.2284 63.0978 97.988 61.06L97.1338 61.58ZM103.945 65.132C106.193 65.132 108.289 64.4758 110.224 63.1749L109.666 62.3451C107.889 63.5402 105.985 64.132 103.945 64.132V65.132ZM110.442 62.811C110.573 61.5374 110.637 59.7252 110.637 57.384H109.637C109.637 59.7148 109.573 61.4866 109.448 62.709L110.442 62.811ZM109.993 56.9051C108.726 57.2853 107.79 57.46 107.161 57.46V58.46C107.939 58.46 108.988 58.2507 110.281 57.8629L109.993 56.9051ZM107.161 57.46C106.365 57.46 105.858 57.2515 105.544 56.92C105.225 56.5835 105.021 56.0334 105.021 55.176H104.021C104.021 56.1746 104.257 57.0165 104.818 57.608C105.384 58.2045 106.197 58.46 107.161 58.46V57.46ZM105.021 55.176C105.021 54.443 105.168 53.6521 105.472 52.8002L104.53 52.4638C104.194 53.4038 104.021 54.309 104.021 55.176H105.021ZM104.843 53.1063C105.769 53.4152 106.833 53.564 108.025 53.564V52.564C106.913 52.564 105.961 52.4248 105.159 52.1577L104.843 53.1063ZM128.894 68.424L129.069 68.8922L129.47 68.742L129.383 68.3232L128.894 68.424ZM122.606 67.896L122.274 68.2706L122.281 68.2766L122.606 67.896ZM121.838 57.528L122.336 57.5721L122.336 57.5717L121.838 57.528ZM121.31 35.496L121.134 35.0278L120.734 35.178L120.82 35.5968L121.31 35.496ZM127.55 36.024L127.218 36.3986L127.225 36.4046L127.55 36.024ZM128.366 46.44L128.864 46.4841L128.864 46.4837L128.366 46.44ZM128.718 67.9558C127.753 68.3177 126.725 68.5 125.63 68.5V69.5C126.838 69.5 127.986 69.2983 129.069 68.8922L128.718 67.9558ZM125.63 68.5C124.595 68.5 123.702 68.1731 122.93 67.5154L122.281 68.2766C123.237 69.0909 124.361 69.5 125.63 69.5V68.5ZM122.937 67.5215C122.229 66.8953 121.858 66.0329 121.858 64.872H120.858C120.858 66.2711 121.318 67.4247 122.274 68.2705L122.937 67.5215ZM121.858 64.872C121.858 63.6174 122.015 61.1908 122.336 57.5721L121.34 57.4839C121.02 61.0972 120.858 63.5666 120.858 64.872H121.858ZM122.336 57.5717C122.656 53.9175 122.818 50.9891 122.818 48.792H121.818C121.818 50.9469 121.659 53.8425 121.34 57.4843L122.336 57.5717ZM122.818 48.792C122.818 43.1777 122.481 38.7072 121.799 35.3952L120.82 35.5968C121.482 38.8128 121.818 43.2063 121.818 48.792H122.818ZM121.485 35.9642C122.45 35.6023 123.478 35.42 124.574 35.42V34.42C123.365 34.42 122.217 34.6217 121.134 35.0278L121.485 35.9642ZM124.574 35.42C125.609 35.42 126.481 35.7466 127.218 36.3985L127.881 35.6495C126.954 34.8294 125.843 34.42 124.574 34.42V35.42ZM127.225 36.4046C127.963 37.0328 128.346 37.8935 128.346 39.048H129.346C129.346 37.6425 128.864 36.4872 127.874 35.6434L127.225 36.4046ZM128.346 39.048C128.346 40.3027 128.188 42.7454 127.868 46.3963L128.864 46.4837C129.184 42.8386 129.346 40.3533 129.346 39.048H128.346ZM127.868 46.3959C127.547 50.0183 127.386 52.9308 127.386 55.128H128.386C128.386 52.9732 128.544 50.0937 128.864 46.4841L127.868 46.3959ZM127.386 55.128C127.386 60.7423 127.722 65.2128 128.404 68.5248L129.383 68.3232C128.721 65.1072 128.386 60.7137 128.386 55.128H127.386ZM135.917 34.776L135.924 34.276H135.917V34.776ZM146.045 34.92L146.038 35.42H146.045V34.92ZM157.565 34.344L158.008 34.112L157.841 33.7942L157.487 33.8501L157.565 34.344ZM156.941 39L157.27 39.3764L157.279 39.3686L156.941 39ZM154.157 40.008L154.101 40.5048L154.129 40.508H154.157V40.008ZM148.637 39.384L148.693 38.8872L148.137 38.8243V39.384H148.637ZM148.397 42.36L148.894 42.4116L148.895 42.4053L148.397 42.36ZM148.733 68.424L148.904 68.8939L149.29 68.7536L149.227 68.3477L148.733 68.424ZM142.445 68.04L142.131 68.4291L142.14 68.4363L142.445 68.04ZM141.677 58.008L142.175 58.0554L142.175 58.0554L141.677 58.008ZM141.677 39.288L142.174 39.2302L142.12 38.7654L141.652 38.7886L141.677 39.288ZM132.605 40.92L132.162 41.1513L132.373 41.5563L132.795 41.3823L132.605 40.92ZM133.133 35.928L133.494 36.274L133.494 36.274L133.133 35.928ZM135.91 35.2759L146.038 35.4199L146.052 34.42L135.924 34.276L135.91 35.2759ZM146.045 35.42C151.297 35.42 155.17 35.2284 157.643 34.8379L157.487 33.8501C155.096 34.2276 151.289 34.42 146.045 34.42V35.42ZM157.122 34.576C157.432 35.167 157.593 35.8535 157.593 36.648H158.593C158.593 35.7145 158.402 34.865 158.008 34.112L157.122 34.576ZM157.593 36.648C157.593 37.3434 157.291 38.001 156.603 38.6314L157.279 39.3686C158.127 38.591 158.593 37.6806 158.593 36.648H157.593ZM156.612 38.6237C155.941 39.2104 155.133 39.508 154.157 39.508V40.508C155.357 40.508 156.405 40.1336 157.27 39.3763L156.612 38.6237ZM154.213 39.5112L148.693 38.8872L148.581 39.8808L154.101 40.5048L154.213 39.5112ZM148.137 39.384C148.137 39.5785 148.061 40.5374 147.899 42.3147L148.895 42.4053C149.053 40.6626 149.137 39.6375 149.137 39.384H148.137ZM147.9 42.3084C147.45 46.6456 147.225 50.9988 147.225 55.368H148.225C148.225 51.0332 148.448 46.7144 148.894 42.4116L147.9 42.3084ZM147.225 55.368C147.225 59.7458 147.563 64.1234 148.239 68.5003L149.227 68.3477C148.559 64.0206 148.225 59.6942 148.225 55.368H147.225ZM148.562 67.9541C147.562 68.3177 146.516 68.5 145.421 68.5V69.5C146.63 69.5 147.792 69.2983 148.904 68.8939L148.562 67.9541ZM145.421 68.5C144.368 68.5 143.486 68.2098 142.75 67.6437L142.14 68.4363C143.068 69.1502 144.17 69.5 145.421 69.5V68.5ZM142.759 67.651C142.071 67.0954 141.697 66.2627 141.697 65.064H140.697C140.697 66.4893 141.155 67.6406 142.131 68.429L142.759 67.651ZM141.697 65.064C141.697 63.7465 141.855 61.4162 142.175 58.0554L141.179 57.9606C140.859 61.3198 140.697 63.6935 140.697 65.064H141.697ZM142.175 58.0554C142.496 54.6807 142.657 51.4008 142.657 48.216H141.657C141.657 51.3672 141.498 54.6153 141.179 57.9606L142.175 58.0554ZM142.657 48.216C142.657 44.9996 142.496 42.0041 142.174 39.2302L141.18 39.3457C141.498 42.0759 141.657 45.0324 141.657 48.216H142.657ZM141.652 38.7886C137.755 38.9819 134.666 39.5305 132.415 40.4577L132.795 41.3823C134.896 40.5175 137.855 39.9781 141.702 39.7874L141.652 38.7886ZM133.048 40.6887C132.705 40.0297 132.529 39.294 132.529 38.472H131.529C131.529 39.442 131.738 40.3383 132.162 41.1513L133.048 40.6887ZM132.529 38.472C132.529 37.6919 132.833 36.9636 133.494 36.274L132.772 35.582C131.961 36.4284 131.529 37.3961 131.529 38.472H132.529ZM133.494 36.274C134.13 35.61 134.925 35.276 135.917 35.276V34.276C134.669 34.276 133.608 34.71 132.772 35.582L133.494 36.274ZM158.513 37.416L158.059 37.2065L157.881 37.5941L158.235 37.8316L158.513 37.416ZM173.537 51.336L173.06 51.484L173.371 52.4873L173.953 51.6133L173.537 51.336ZM178.625 42.264L178.172 42.0536L178.171 42.0557L178.625 42.264ZM180.785 34.632V34.132H180.285V34.632H180.785ZM183.569 42.888L183.145 42.6235L183.145 42.6235L183.569 42.888ZM178.577 50.52L178.165 50.238L178.164 50.2391L178.577 50.52ZM175.457 56.232L174.974 56.1048L174.962 56.1485L174.959 56.1937L175.457 56.232ZM175.985 68.424L176.161 68.8922L176.536 68.7517L176.481 68.3553L175.985 68.424ZM169.697 67.896L169.366 68.2706L169.373 68.2766L169.697 67.896ZM169.025 56.376L169.524 56.417L169.531 56.3331L169.51 56.2517L169.025 56.376ZM158.967 37.6255C159.314 36.8742 159.794 36.3327 160.4 35.9745C161.01 35.6141 161.781 35.42 162.737 35.42V34.42C161.646 34.42 160.689 34.6419 159.891 35.1135C159.089 35.5873 158.481 36.2938 158.059 37.2065L158.967 37.6255ZM162.737 35.42C164.38 35.42 166.102 36.6022 167.876 39.2988C169.638 41.9768 171.369 46.0287 173.06 51.484L174.015 51.188C172.314 45.6993 170.549 41.5432 168.711 38.7492C166.885 35.9738 164.903 34.42 162.737 34.42V35.42ZM173.953 51.6133C175.951 48.6167 177.66 45.5697 179.08 42.4723L178.171 42.0557C176.775 45.1023 175.092 48.1033 173.121 51.0586L173.953 51.6133ZM179.079 42.4744C180.531 39.3456 181.285 36.7234 181.285 34.632H180.285C180.285 36.5086 179.6 38.9744 178.172 42.0536L179.079 42.4744ZM180.785 35.132C182.454 35.132 183.628 35.3551 184.368 35.7461C184.731 35.9377 184.976 36.1627 185.133 36.4108C185.288 36.6571 185.373 36.954 185.373 37.32H186.373C186.373 36.79 186.247 36.3029 185.978 35.8772C185.711 35.4533 185.32 35.1183 184.835 34.8619C183.879 34.3569 182.509 34.132 180.785 34.132V35.132ZM185.373 37.32C185.373 37.8506 185.208 38.5569 184.835 39.4568C184.465 40.3509 183.904 41.4055 183.145 42.6235L183.994 43.1525C184.77 41.9065 185.361 40.8011 185.759 39.8392C186.155 38.8831 186.373 38.0374 186.373 37.32H185.373ZM183.145 42.6235C181.613 45.0811 179.953 47.6192 178.165 50.238L178.99 50.802C180.786 48.1728 182.454 45.6229 183.994 43.1525L183.145 42.6235ZM178.164 50.2391C176.406 52.8285 175.318 54.7964 174.974 56.1048L175.941 56.3592C176.237 55.2356 177.229 53.3955 178.991 50.8009L178.164 50.2391ZM174.959 56.1937C174.862 57.4587 174.813 59.0084 174.813 60.84H175.813C175.813 59.0236 175.861 57.5013 175.956 56.2703L174.959 56.1937ZM174.813 60.84C174.813 62.6982 175.041 65.2526 175.49 68.4927L176.481 68.3553C176.034 65.1314 175.813 62.6298 175.813 60.84H174.813ZM175.81 67.9558C174.845 68.3177 173.817 68.5 172.721 68.5V69.5C173.93 69.5 175.078 69.2983 176.161 68.8922L175.81 67.9558ZM172.721 68.5C171.686 68.5 170.794 68.1731 170.022 67.5154L169.373 68.2766C170.329 69.0909 171.453 69.5 172.721 69.5V68.5ZM170.029 67.5215C169.305 66.8813 168.949 66.0901 168.949 65.112H167.949C167.949 66.3739 168.426 67.4387 169.366 68.2705L170.029 67.5215ZM168.949 65.112C168.949 63.9852 169.139 61.0968 169.524 56.417L168.527 56.335C168.144 60.9992 167.949 63.9348 167.949 65.112H168.949ZM169.51 56.2517C167.037 46.6193 163.493 40.1461 158.791 37.0004L158.235 37.8316C162.621 40.7659 166.085 46.9327 168.541 56.5003L169.51 56.2517ZM225.247 47.016L225.089 46.5417L224.662 46.684L224.759 47.1234L225.247 47.016ZM230.719 47.784L230.373 48.1448L230.38 48.152L230.719 47.784ZM226.351 62.184L225.994 61.8335L225.531 62.3048L226.111 62.6225L226.351 62.184ZM235.135 64.92H235.635V64.42H235.135V64.92ZM221.743 65.88L222 65.4513L221.733 65.2909L221.471 65.4602L221.743 65.88ZM203.935 67.416L203.589 67.777L203.593 67.7808L203.935 67.416ZM206.815 51.336L207.135 51.7201L207.459 51.4504L207.248 51.0857L206.815 51.336ZM207.919 37.224L207.593 36.8451L207.59 36.8474L207.919 37.224ZM220.495 35.736L220.174 36.1193L220.18 36.1244L220.495 35.736ZM221.407 43.416L220.991 43.1386L220.988 43.1424L221.407 43.416ZM220.111 45.288L219.715 44.9831L219.707 44.9931L219.7 45.0034L220.111 45.288ZM218.575 46.824L218.256 46.4384L218.248 46.4456L218.575 46.824ZM216.991 48.168L217.303 48.5585L217.308 48.555L216.991 48.168ZM215.167 49.56L215.458 49.967L215.467 49.96L215.167 49.56ZM213.439 50.808L213.139 50.408L212.761 50.6918L213.023 51.0853L213.439 50.808ZM222.415 59.64L222.121 60.0442L222.495 60.3166L222.795 59.9646L222.415 59.64ZM209.167 54.792L209.562 54.4856L209.151 53.9559L208.761 54.5005L209.167 54.792ZM217.999 63.288L218.248 63.7216L218.9 63.3475L218.303 62.8909L217.999 63.288ZM216.895 43.08L216.453 42.8461L216.449 42.8536L216.445 42.8613L216.895 43.08ZM216.607 39.24L216.242 39.582L216.242 39.582L216.607 39.24ZM211.519 39.24L211.271 38.8059L211.177 38.8594L211.114 38.9467L211.519 39.24ZM211.711 47.784L211.256 47.9909L211.501 48.5303L211.991 48.1979L211.711 47.784ZM225.405 47.4903C226.111 47.2552 226.951 47.132 227.935 47.132V46.132C226.871 46.132 225.919 46.2648 225.089 46.5417L225.405 47.4903ZM227.935 47.132C228.855 47.132 229.661 47.4611 230.373 48.1447L231.065 47.4233C230.177 46.5709 229.127 46.132 227.935 46.132V47.132ZM230.38 48.152C231.054 48.7717 231.419 49.6643 231.419 50.904H232.419C232.419 49.4557 231.984 48.2683 231.057 47.416L230.38 48.152ZM231.419 50.904C231.419 54.4707 229.653 58.1119 225.994 61.8335L226.708 62.5345C230.473 58.7041 232.419 54.8253 232.419 50.904H231.419ZM226.111 62.6225C229.478 64.4682 232.491 65.42 235.135 65.42V64.42C232.723 64.42 229.88 63.5478 226.591 61.7455L226.111 62.6225ZM234.635 64.92C234.635 66.2725 234.312 67.1941 233.753 67.7787C233.199 68.3589 232.332 68.692 231.055 68.692V69.692C232.498 69.692 233.671 69.3131 234.477 68.4693C235.278 67.6299 235.635 66.4155 235.635 64.92H234.635ZM231.055 68.692C228.661 68.692 225.65 67.6413 222 65.4513L221.486 66.3087C225.196 68.5347 228.393 69.692 231.055 69.692V68.692ZM221.471 65.4602C217.725 67.8841 214.074 69.076 210.511 69.076V70.076C214.308 70.076 218.145 68.8039 222.015 66.2998L221.471 65.4602ZM210.511 69.076C207.744 69.076 205.692 68.3775 204.277 67.0512L203.593 67.7808C205.25 69.3345 207.582 70.076 210.511 70.076V69.076ZM204.281 67.055C202.871 65.704 202.131 63.7237 202.131 61.032H201.131C201.131 63.9083 201.927 66.184 203.589 67.777L204.281 67.055ZM202.131 61.032C202.131 57.6332 203.761 54.5315 207.135 51.7201L206.495 50.9519C202.956 53.9005 201.131 57.2628 201.131 61.032H202.131ZM207.248 51.0857C205.735 48.4692 205.011 46.2218 205.011 44.328H204.011C204.011 46.4662 204.823 48.8908 206.382 51.5863L207.248 51.0857ZM205.011 44.328C205.011 41.7352 206.073 39.4999 208.248 37.6006L207.59 36.8474C205.221 38.9161 204.011 41.4167 204.011 44.328H205.011ZM208.245 37.6029C210.463 35.6933 212.956 34.748 215.743 34.748V33.748C212.706 33.748 209.983 34.7867 207.593 36.8451L208.245 37.6029ZM215.743 34.748C217.644 34.748 219.103 35.222 220.174 36.1193L220.816 35.3527C219.519 34.266 217.81 33.748 215.743 33.748V34.748ZM220.18 36.1244C221.224 36.9705 221.771 38.2059 221.771 39.912H222.771C222.771 37.9701 222.134 36.4215 220.81 35.3476L220.18 36.1244ZM221.771 39.912C221.771 41.3248 221.494 42.3844 220.991 43.1386L221.823 43.6933C222.472 42.7196 222.771 41.4432 222.771 39.912H221.771ZM220.988 43.1424C220.446 43.9713 220.023 44.5826 219.715 44.9831L220.507 45.5929C220.839 45.1614 221.279 44.5247 221.825 43.6896L220.988 43.1424ZM219.7 45.0034C219.452 45.3618 218.983 45.8388 218.256 46.4385L218.893 47.2095C219.639 46.5932 220.194 46.0462 220.522 45.5726L219.7 45.0034ZM218.248 46.4456C217.545 47.053 217.021 47.4974 216.674 47.781L217.308 48.555C217.665 48.2626 218.197 47.811 218.902 47.2024L218.248 46.4456ZM216.679 47.7776C216.366 48.028 215.764 48.4875 214.867 49.16L215.467 49.96C216.362 49.2884 216.976 48.82 217.303 48.5584L216.679 47.7776ZM214.876 49.1531C213.982 49.7922 213.401 50.2118 213.139 50.408L213.739 51.208C213.989 51.0202 214.56 50.6078 215.458 49.9669L214.876 49.1531ZM213.023 51.0853C215.05 54.1254 218.09 57.1098 222.121 60.0442L222.709 59.2358C218.74 56.3462 215.796 53.4426 213.855 50.5306L213.023 51.0853ZM222.795 59.9646C225.083 57.2846 226.275 54.6136 226.275 51.96H225.275C225.275 54.2984 224.227 56.7474 222.035 59.3154L222.795 59.9646ZM226.275 51.96C226.275 50.2291 226.095 48.5451 225.735 46.9086L224.759 47.1234C225.103 48.6869 225.275 50.2989 225.275 51.96H226.275ZM208.761 54.5005C207.651 56.0477 207.083 57.7 207.083 59.448H208.083C208.083 57.932 208.571 56.4803 209.573 55.0835L208.761 54.5005ZM207.083 59.448C207.083 61.2988 207.537 62.7792 208.534 63.7943C209.533 64.8111 210.992 65.276 212.815 65.276V64.276C211.15 64.276 209.993 63.8529 209.248 63.0937C208.501 62.3328 208.083 61.1492 208.083 59.448H207.083ZM212.815 65.276C214.643 65.276 216.456 64.7504 218.248 63.7216L217.75 62.8544C216.086 63.8096 214.443 64.276 212.815 64.276V65.276ZM218.303 62.8909C214.648 60.0941 211.737 57.2915 209.562 54.4856L208.772 55.0984C211.012 57.9885 213.99 60.8499 217.695 63.6851L218.303 62.8909ZM217.337 43.3139C217.67 42.685 217.827 41.9617 217.827 41.16H216.827C216.827 41.8303 216.696 42.387 216.453 42.8461L217.337 43.3139ZM217.827 41.16C217.827 40.278 217.547 39.5118 216.972 38.898L216.242 39.582C216.627 39.9922 216.827 40.506 216.827 41.16H217.827ZM216.972 38.898C216.361 38.2465 215.449 37.972 214.351 37.972V38.972C215.301 38.972 215.893 39.2095 216.242 39.582L216.972 38.898ZM214.351 37.972C213.268 37.972 212.239 38.2525 211.271 38.8059L211.767 39.6741C212.591 39.2035 213.45 38.972 214.351 38.972V37.972ZM211.114 38.9467C210.363 39.9832 210.011 41.3114 210.011 42.888H211.011C211.011 41.4566 211.33 40.3528 211.924 39.5333L211.114 38.9467ZM210.011 42.888C210.011 44.4807 210.434 46.1838 211.256 47.9909L212.166 47.5771C211.388 45.8642 211.011 44.3033 211.011 42.888H210.011ZM211.991 48.1979C213.442 47.2144 214.615 46.3197 215.503 45.5143C216.383 44.7154 217.015 43.9762 217.345 43.2987L216.445 42.8613C216.199 43.3678 215.678 44.0046 214.831 44.7737C213.991 45.5362 212.859 46.4016 211.43 47.3701L211.991 48.1979ZM81.5406 112.064V112.564H81.5592L81.5778 112.563L81.5406 112.064ZM86.6766 111.68V111.18H86.6579L86.6393 111.181L86.6766 111.68ZM89.1246 119.84L89.6209 119.9L89.6209 119.9L89.1246 119.84ZM88.6926 125.6L88.7716 126.094L89.1926 126.026V125.6H88.6926ZM83.3166 127.04L83.1734 126.561L83.1719 126.561L83.3166 127.04ZM66.0846 124.064L65.6976 124.381L65.6997 124.383L66.0846 124.064ZM64.5006 103.04L64.0436 102.837L64.0418 102.841L64.5006 103.04ZM70.1646 96.032L70.4562 96.4382L70.4562 96.4382L70.1646 96.032ZM86.0046 95.456L85.7183 95.8659L85.7213 95.868L86.0046 95.456ZM87.8766 104.576L87.4979 104.25L87.4969 104.251L87.8766 104.576ZM82.3566 105.488L81.8634 105.406L81.8074 105.742L82.0993 105.917L82.3566 105.488ZM81.0606 99.632L80.6856 99.9628L80.6906 99.9683L81.0606 99.632ZM71.9886 99.776L71.6873 99.377L71.6252 99.4238L71.5804 99.4873L71.9886 99.776ZM69.8286 105.152L70.3163 105.262L70.3163 105.262L69.8286 105.152ZM71.0766 120.32L70.6478 120.577L70.6495 120.58L71.0766 120.32ZM83.4606 121.76L83.7396 122.175L83.934 122.044L83.958 121.811L83.4606 121.76ZM83.6526 116.384H84.1526V115.712L83.5089 115.905L83.6526 116.384ZM78.5166 111.632L78.6747 111.158L78.2103 111.003L78.0457 111.464L78.5166 111.632ZM81.5778 112.563L86.7138 112.179L86.6393 111.181L81.5033 111.565L81.5778 112.563ZM86.6766 112.18C87.5574 112.18 88.1266 112.403 88.4801 112.763C88.8351 113.124 89.0566 113.707 89.0566 114.608H90.0566C90.0566 113.557 89.798 112.676 89.193 112.061C88.5865 111.445 87.7157 111.18 86.6766 111.18V112.18ZM89.0566 114.608C89.0566 115.696 88.9159 117.415 88.6282 119.78L89.6209 119.9C89.9093 117.529 90.0566 115.76 90.0566 114.608H89.0566ZM88.6282 119.78C88.3391 122.157 88.1926 124.099 88.1926 125.6H89.1926C89.1926 124.157 89.334 122.259 89.6209 119.9L88.6282 119.78ZM88.6136 125.106C87.7743 125.241 85.9479 125.732 83.1734 126.561L83.4597 127.519C86.2532 126.684 88.0109 126.215 88.7716 126.094L88.6136 125.106ZM83.1719 126.561C80.444 127.386 78.1924 127.788 76.4046 127.788V128.788C78.3287 128.788 80.6851 128.358 83.4613 127.519L83.1719 126.561ZM76.4046 127.788C71.97 127.788 68.6879 126.419 66.4694 123.745L65.6997 124.383C68.1533 127.341 71.7511 128.788 76.4046 128.788V127.788ZM66.4715 123.747C64.262 121.047 63.1286 117.332 63.1286 112.544H62.1286C62.1286 117.484 63.2991 121.449 65.6976 124.381L66.4715 123.747ZM63.1286 112.544C63.1286 109.149 63.7412 106.05 64.9593 103.239L64.0418 102.841C62.764 105.79 62.1286 109.027 62.1286 112.544H63.1286ZM64.9575 103.243C66.2024 100.442 68.0343 98.177 70.4562 96.4382L69.873 95.6258C67.3029 97.471 65.3588 99.8779 64.0437 102.837L64.9575 103.243ZM70.4562 96.4382C72.8691 94.7058 75.5196 93.844 78.4206 93.844V92.844C75.3056 92.844 72.452 93.7742 69.873 95.6258L70.4562 96.4382ZM78.4206 93.844C81.3826 93.844 83.8043 94.5291 85.7183 95.8659L86.2909 95.0461C84.1729 93.5668 81.5385 92.844 78.4206 92.844V93.844ZM85.7213 95.868C87.6394 97.1867 88.5766 98.9395 88.5766 101.168H89.5766C89.5766 98.5965 88.4658 96.5413 86.2878 95.044L85.7213 95.868ZM88.5766 101.168C88.5766 102.405 88.2118 103.421 87.4979 104.25L88.2553 104.902C89.1413 103.875 89.5766 102.619 89.5766 101.168H88.5766ZM87.4969 104.251C86.8272 105.032 85.9757 105.42 84.9006 105.42V106.42C86.2574 106.42 87.3899 105.912 88.2562 104.901L87.4969 104.251ZM84.9006 105.42C83.6918 105.42 82.9668 105.271 82.6138 105.059L82.0993 105.917C82.7063 106.281 83.6774 106.42 84.9006 106.42V105.42ZM82.8498 105.57C82.9502 104.967 83.0006 104.364 83.0006 103.76H82.0006C82.0006 104.308 81.9549 104.857 81.8634 105.406L82.8498 105.57ZM83.0006 103.76C83.0006 101.964 82.4895 100.461 81.4305 99.2957L80.6906 99.9683C81.5516 100.915 82.0006 102.164 82.0006 103.76H83.0006ZM81.4355 99.3012C80.3606 98.083 78.8508 97.5 76.9806 97.5V98.5C78.6304 98.5 79.8405 99.005 80.6856 99.9628L81.4355 99.3012ZM76.9806 97.5C75.0992 97.5 73.3314 98.1355 71.6873 99.377L72.2899 100.175C73.7817 99.0485 75.3419 98.5 76.9806 98.5V97.5ZM71.5804 99.4873C70.6013 100.871 69.8613 102.732 69.3408 105.042L70.3163 105.262C70.8198 103.028 71.5199 101.305 72.3968 100.065L71.5804 99.4873ZM69.3408 105.042C68.8214 107.347 68.5606 109.592 68.5606 111.776H69.5606C69.5606 109.672 69.8118 107.501 70.3163 105.262L69.3408 105.042ZM68.5606 111.776C68.5606 115.294 69.2444 118.238 70.6478 120.577L71.5053 120.063C70.2207 117.922 69.5606 115.17 69.5606 111.776H68.5606ZM70.6495 120.58C72.0971 122.958 74.4004 124.132 77.4606 124.132V123.132C74.6967 123.132 72.744 122.098 71.5037 120.06L70.6495 120.58ZM77.4606 124.132C79.7084 124.132 81.8049 123.476 83.7396 122.175L83.1816 121.345C81.4043 122.54 79.5007 123.132 77.4606 123.132V124.132ZM83.958 121.811C84.0886 120.537 84.1526 118.725 84.1526 116.384H83.1526C83.1526 118.715 83.0885 120.487 82.9632 121.709L83.958 121.811ZM83.5089 115.905C82.2416 116.285 81.306 116.46 80.6766 116.46V117.46C81.4551 117.46 82.5035 117.251 83.7962 116.863L83.5089 115.905ZM80.6766 116.46C79.8806 116.46 79.3737 116.251 79.0594 115.92C78.7403 115.583 78.5366 115.033 78.5366 114.176H77.5366C77.5366 115.175 77.7728 116.017 78.3338 116.608C78.8994 117.205 79.7125 117.46 80.6766 117.46V116.46ZM78.5366 114.176C78.5366 113.443 78.6832 112.652 78.9874 111.8L78.0457 111.464C77.71 112.404 77.5366 113.309 77.5366 114.176H78.5366ZM78.3584 112.106C79.2849 112.415 80.3484 112.564 81.5406 112.564V111.564C80.4287 111.564 79.4762 111.425 78.6747 111.158L78.3584 112.106ZM94.8253 94.496L94.6498 94.0278L94.2691 94.1706L94.3312 94.5723L94.8253 94.496ZM101.929 104.768L102.427 104.818L102.427 104.817L101.929 104.768ZM101.785 123.344L101.288 123.393L101.327 123.796L101.73 123.841L101.785 123.344ZM115.513 121.376L115.97 121.173L115.768 120.718L115.312 120.918L115.513 121.376ZM114.937 127.136L114.577 126.79L114.576 126.79L114.937 127.136ZM97.2733 127.712L97.247 128.211L97.2483 128.211L97.2733 127.712ZM95.6893 127.184L95.3804 127.577L95.3894 127.584L95.3987 127.591L95.6893 127.184ZM95.4013 117.296L94.9026 117.26L94.9023 117.264L95.4013 117.296ZM95.0009 94.9642C95.9643 94.6029 97.0083 94.42 98.1373 94.42V93.42C96.8983 93.42 95.7344 93.6211 94.6498 94.0278L95.0009 94.9642ZM98.1373 94.42C99.4953 94.42 100.42 94.73 101.005 95.2618C101.58 95.7854 101.909 96.6018 101.909 97.808H102.909C102.909 96.4222 102.526 95.2945 101.678 94.5222C100.838 93.758 99.6273 93.42 98.1373 93.42V94.42ZM101.909 97.808C101.909 99.1891 101.752 101.488 101.432 104.719L102.427 104.817C102.747 101.584 102.909 99.2429 102.909 97.808H101.909ZM101.432 104.718C101.11 107.936 100.949 111.281 100.949 114.752H101.949C101.949 111.311 102.109 108 102.427 104.818L101.432 104.718ZM100.949 114.752C100.949 118.217 101.062 121.099 101.288 123.393L102.283 123.295C102.061 121.045 101.949 118.199 101.949 114.752H100.949ZM101.73 123.841C102.612 123.939 103.495 123.988 104.377 123.988V122.988C103.532 122.988 102.686 122.941 101.841 122.847L101.73 123.841ZM104.377 123.988C108.657 123.988 112.439 123.275 115.715 121.834L115.312 120.918C112.187 122.293 108.546 122.988 104.377 122.988V123.988ZM115.056 121.579C115.408 122.37 115.589 123.275 115.589 124.304H116.589C116.589 123.157 116.387 122.11 115.97 121.173L115.056 121.579ZM115.589 124.304C115.589 125.26 115.257 126.081 114.577 126.79L115.298 127.482C116.153 126.591 116.589 125.524 116.589 124.304H115.589ZM114.576 126.79C113.937 127.457 113.157 127.788 112.201 127.788V128.788C113.422 128.788 114.466 128.351 115.298 127.482L114.576 126.79ZM112.201 127.788C109.944 127.788 104.981 127.597 97.2983 127.213L97.2483 128.211C104.925 128.595 109.914 128.788 112.201 128.788V127.788ZM97.2996 127.213C96.7763 127.185 96.3423 127.036 95.9799 126.777L95.3987 127.591C95.9323 127.972 96.5543 128.175 97.247 128.211L97.2996 127.213ZM95.9982 126.791C95.6553 126.521 95.5173 126.228 95.5173 125.888H94.5173C94.5173 126.572 94.8273 127.143 95.3804 127.577L95.9982 126.791ZM95.5173 125.888C95.5173 124.209 95.6443 121.36 95.9003 117.328L94.9023 117.264C94.6463 121.296 94.5173 124.175 94.5173 125.888H95.5173ZM95.9 117.332C96.1887 113.29 96.3333 109.566 96.3333 106.16H95.3333C95.3333 109.538 95.1899 113.238 94.9026 117.26L95.9 117.332ZM96.3333 106.16C96.3333 102.704 95.9943 98.7902 95.3195 94.4197L94.3312 94.5723C95.0003 98.9058 95.3333 102.768 95.3333 106.16H96.3333ZM127.354 94.304L127.195 93.8297L126.933 93.9173L126.868 94.1865L127.354 94.304ZM134.89 95.408L134.496 95.7165L134.5 95.7217L134.89 95.408ZM137.05 100.352L136.563 100.468L136.564 100.473L137.05 100.352ZM138.01 104.576L137.521 104.684L137.523 104.691L138.01 104.576ZM139.258 109.856L139.744 109.741L139.744 109.74L139.258 109.856ZM141.946 119.6L141.473 119.764L141.475 119.77L141.946 119.6ZM145.882 125.12L146.346 125.306L146.486 124.954L146.186 124.723L145.882 125.12ZM143.962 127.424L143.691 127.003L143.684 127.008L143.962 127.424ZM135.994 123.008L136.471 122.86L136.471 122.858L135.994 123.008ZM134.602 118.208L135.085 118.08L134.947 117.561L134.439 117.735L134.602 118.208ZM124.378 118.256L124.45 117.761L124.005 117.696L123.893 118.132L124.378 118.256ZM122.938 127.904L123.014 128.398L123.514 128.321L123.431 127.822L122.938 127.904ZM118.186 127.088L117.857 127.465L117.866 127.473L117.875 127.48L118.186 127.088ZM121.69 110.336L121.225 110.152L121.225 110.152L121.69 110.336ZM125.482 114.224L125.003 114.081L124.833 114.647L125.42 114.72L125.482 114.224ZM133.642 114.032L133.736 114.523L134.24 114.426L134.13 113.925L133.642 114.032ZM130.714 98.96L131.205 98.8664L130.877 97.1448L130.247 98.7803L130.714 98.96ZM127.512 94.7783C128.819 94.3425 129.981 94.132 131.002 94.132V93.132C129.846 93.132 128.576 93.3695 127.195 93.8297L127.512 94.7783ZM131.002 94.132C132.531 94.132 133.674 94.6673 134.496 95.7164L135.283 95.0996C134.249 93.7807 132.801 93.132 131.002 93.132V94.132ZM134.5 95.7217C135.364 96.7946 136.061 98.364 136.563 100.468L137.536 100.236C137.014 98.052 136.271 96.3254 135.279 95.0943L134.5 95.7217ZM136.564 100.473C136.722 101.105 137.041 102.506 137.521 104.684L138.498 104.468C138.018 102.294 137.697 100.879 137.535 100.231L136.564 100.473ZM137.523 104.691C138.035 106.867 138.451 108.627 138.771 109.972L139.744 109.74C139.424 108.397 139.008 106.637 138.496 104.461L137.523 104.691ZM138.771 109.971C139.764 114.169 140.665 117.436 141.473 119.764L142.418 119.436C141.626 117.156 140.735 113.927 139.744 109.741L138.771 109.971ZM141.475 119.77C142.337 122.156 143.703 124.077 145.577 125.517L146.186 124.723C144.476 123.411 143.218 121.652 142.416 119.43L141.475 119.77ZM145.417 124.934C145.073 125.795 144.503 126.482 143.691 127.003L144.232 127.845C145.213 127.214 145.922 126.365 146.346 125.306L145.417 124.934ZM143.684 127.008C142.901 127.53 142.053 127.788 141.13 127.788V128.788C142.254 128.788 143.294 128.47 144.239 127.84L143.684 127.008ZM141.13 127.788C140.104 127.788 139.219 127.408 138.452 126.619C137.672 125.817 137.003 124.58 136.471 122.86L135.516 123.156C136.072 124.956 136.803 126.359 137.735 127.317C138.68 128.288 139.819 128.788 141.13 128.788V127.788ZM136.471 122.858C135.961 121.233 135.499 119.64 135.085 118.08L134.118 118.336C134.536 119.912 135.002 121.519 135.516 123.158L136.471 122.858ZM134.439 117.735C133.388 118.095 132.055 118.284 130.426 118.284V119.284C132.124 119.284 133.575 119.089 134.764 118.681L134.439 117.735ZM130.426 118.284C128.826 118.284 126.836 118.111 124.45 117.761L124.305 118.751C126.719 119.105 128.761 119.284 130.426 119.284V118.284ZM123.893 118.132C122.899 122.011 122.39 124.974 122.39 126.992H123.39C123.39 125.106 123.872 122.245 124.862 118.38L123.893 118.132ZM122.39 126.992C122.39 127.412 122.405 127.751 122.444 127.986L123.431 127.822C123.406 127.673 123.39 127.404 123.39 126.992H122.39ZM122.862 127.41C122.487 127.467 121.817 127.5 120.826 127.5V128.5C121.818 128.5 122.556 128.469 123.014 128.398L122.862 127.41ZM120.826 127.5C119.945 127.5 119.174 127.233 118.496 126.696L117.875 127.48C118.733 128.159 119.722 128.5 120.826 128.5V127.5ZM118.514 126.711C117.907 126.183 117.582 125.436 117.582 124.4H116.582C116.582 125.668 116.992 126.713 117.857 127.465L118.514 126.711ZM117.582 124.4C117.582 124.063 117.665 123.518 117.855 122.74C118.043 121.971 118.327 121.005 118.709 119.84C119.472 117.509 120.62 114.404 122.155 110.52L121.225 110.152C119.687 114.044 118.531 117.171 117.758 119.528C117.372 120.707 117.08 121.699 116.884 122.502C116.69 123.296 116.582 123.937 116.582 124.4H117.582ZM122.155 110.52C125.225 102.747 127.126 97.3723 127.84 94.4215L126.868 94.1865C126.173 97.0597 124.298 102.373 121.225 110.152L122.155 110.52ZM125.42 114.72C126.72 114.883 128.037 114.964 129.37 114.964V113.964C128.078 113.964 126.803 113.885 125.544 113.728L125.42 114.72ZM129.37 114.964C130.749 114.964 132.205 114.816 133.736 114.523L133.548 113.541C132.07 113.824 130.678 113.964 129.37 113.964V114.964ZM134.13 113.925C133.844 112.622 132.87 107.607 131.205 98.8664L130.222 99.0536C131.886 107.785 132.863 112.818 133.153 114.139L134.13 113.925ZM130.247 98.7803C128.259 103.944 126.51 109.044 125.003 114.081L125.961 114.367C127.461 109.356 129.201 104.28 131.18 99.1397L130.247 98.7803ZM183.525 96.608L184.025 96.6231L184.025 96.6156V96.608H183.525ZM183.285 104.528L182.785 104.513L182.785 104.52V104.528H183.285ZM183.669 116.24L183.17 116.277L183.17 116.277L183.669 116.24ZM185.397 127.424L185.713 127.811L185.952 127.616L185.885 127.316L185.397 127.424ZM177.861 114.56L177.361 114.535L177.361 114.538L177.861 114.56ZM178.197 104.192H178.697V102.591L177.786 103.907L178.197 104.192ZM172.725 113.456L172.282 113.225L172.281 113.226L172.725 113.456ZM170.133 122.096L170.401 122.518L170.738 122.304L170.604 121.928L170.133 122.096ZM164.373 121.808L164.053 122.192L164.06 122.198L164.373 121.808ZM162.405 119.168L161.95 119.376L161.955 119.386L162.405 119.168ZM159.621 112.592L159.156 112.777L159.158 112.782L159.621 112.592ZM156.021 104.096L156.475 103.887L155.789 102.394L155.527 104.016L156.021 104.096ZM155.157 127.424L155.332 127.892L155.694 127.757L155.654 127.372L155.157 127.424ZM150.069 115.568L149.575 115.491L149.574 115.493L150.069 115.568ZM150.645 94.592L150.519 94.108L150.094 94.2182L150.149 94.654L150.645 94.592ZM158.229 95.792L158.68 95.577L158.678 95.573L158.229 95.792ZM162.453 105.44L161.992 105.634L161.994 105.638L162.453 105.44ZM167.061 115.568L166.614 115.792L167.072 116.708L167.512 115.783L167.061 115.568ZM169.269 111.248L168.827 111.014L168.826 111.017L169.269 111.248ZM172.197 105.536L171.75 105.312L171.748 105.316L172.197 105.536ZM174.597 99.872L174.129 99.6957L174.128 99.6995L174.597 99.872ZM176.181 94.112L176.047 93.6302L175.73 93.7182L175.685 94.044L176.181 94.112ZM182.373 94.352L182.638 93.928L182.638 93.928L182.373 94.352ZM183.025 96.5929L182.785 104.513L183.785 104.543L184.025 96.6231L183.025 96.5929ZM182.785 104.528C182.785 108.889 182.913 112.806 183.17 116.277L184.167 116.203C183.913 112.762 183.785 108.871 183.785 104.528H182.785ZM183.17 116.277C183.428 119.729 184.009 123.482 184.909 127.532L185.885 127.316C184.993 123.302 184.421 119.599 184.167 116.203L183.17 116.277ZM185.08 127.037C184.509 127.504 183.53 127.788 182.037 127.788V128.788C183.616 128.788 184.877 128.496 185.713 127.811L185.08 127.037ZM182.037 127.788C180.61 127.788 179.634 127.476 179.017 126.939C178.414 126.414 178.073 125.6 178.073 124.4H177.073C177.073 125.792 177.476 126.922 178.36 127.693C179.232 128.452 180.487 128.788 182.037 128.788V127.788ZM178.073 124.4C178.073 122.267 178.168 118.996 178.36 114.582L177.361 114.538C177.169 118.956 177.073 122.245 177.073 124.4H178.073ZM178.36 114.585C178.584 110.166 178.697 106.7 178.697 104.192H177.697C177.697 106.676 177.585 110.122 177.361 114.535L178.36 114.585ZM177.786 103.907C176.042 106.425 174.208 109.532 172.282 113.225L173.168 113.687C175.082 110.02 176.895 106.951 178.608 104.477L177.786 103.907ZM172.281 113.226C171.334 115.055 170.619 116.54 170.14 117.678C169.9 118.246 169.717 118.735 169.592 119.141C169.47 119.537 169.393 119.891 169.393 120.176H170.393C170.393 120.045 170.433 119.807 170.548 119.435C170.659 119.073 170.829 118.618 171.062 118.066C171.526 116.964 172.227 115.505 173.169 113.686L172.281 113.226ZM169.393 120.176C169.393 121.029 169.473 121.736 169.662 122.264L170.604 121.928C170.472 121.56 170.393 120.987 170.393 120.176H169.393ZM169.864 121.674C169.268 122.054 168.428 122.268 167.301 122.268V123.268C168.542 123.268 169.59 123.034 170.401 122.518L169.864 121.674ZM167.301 122.268C166.247 122.268 165.386 121.978 164.685 121.418L164.06 122.198C164.96 122.918 166.05 123.268 167.301 123.268V122.268ZM164.693 121.424C163.991 120.839 163.375 120.021 162.855 118.95L161.955 119.386C162.523 120.555 163.219 121.497 164.053 122.192L164.693 121.424ZM162.86 118.96C162.352 117.85 161.428 115.667 160.083 112.402L159.158 112.782C160.502 116.045 161.433 118.246 161.95 119.376L162.86 118.96ZM160.085 112.407C158.771 109.106 157.568 106.265 156.475 103.887L155.566 104.305C156.65 106.663 157.846 109.486 159.156 112.777L160.085 112.407ZM155.527 104.016C154.692 109.187 154.273 113.774 154.273 117.776H155.273C155.273 113.842 155.685 109.309 156.514 104.176L155.527 104.016ZM154.273 117.776C154.273 121.752 154.401 124.987 154.659 127.476L155.654 127.372C155.401 124.933 155.273 121.736 155.273 117.776H154.273ZM154.981 126.956C154.01 127.32 153.045 127.5 152.085 127.5V128.5C153.173 128.5 154.256 128.296 155.332 127.892L154.981 126.956ZM152.085 127.5C151.138 127.5 150.52 127.264 150.134 126.878C149.749 126.493 149.513 125.875 149.513 124.928H148.513C148.513 126.029 148.788 126.947 149.427 127.586C150.066 128.224 150.984 128.5 152.085 128.5V127.5ZM149.513 124.928C149.513 123.404 149.858 120.321 150.563 115.643L149.574 115.493C148.871 120.159 148.513 123.316 148.513 124.928H149.513ZM150.563 115.645C151.301 110.926 151.673 106.931 151.673 103.664H150.673C150.673 106.861 150.309 110.802 149.575 115.491L150.563 115.645ZM151.673 103.664C151.673 100.414 151.496 97.3691 151.141 94.53L150.149 94.654C150.498 97.4469 150.673 100.45 150.673 103.664H151.673ZM150.77 95.076C152.486 94.6312 153.781 94.42 154.677 94.42V93.42C153.653 93.42 152.26 93.6568 150.519 94.108L150.77 95.076ZM154.677 94.42C156.307 94.42 157.279 94.9839 157.779 96.011L158.678 95.573C157.963 94.1041 156.567 93.42 154.677 93.42V94.42ZM157.777 96.007C158.732 98.0118 160.136 101.219 161.992 105.634L162.914 105.246C161.057 100.829 159.646 97.6042 158.68 95.577L157.777 96.007ZM161.994 105.638C163.883 110.025 165.423 113.411 166.614 115.792L167.508 115.344C166.33 112.989 164.799 109.623 162.912 105.242L161.994 105.638ZM167.512 115.783C167.828 115.121 168.559 113.689 169.712 111.479L168.826 111.017C167.675 113.223 166.934 114.671 166.609 115.353L167.512 115.783ZM169.711 111.482C170.896 109.239 171.875 107.33 172.646 105.756L171.748 105.316C170.983 106.878 170.009 108.777 168.827 111.014L169.711 111.482ZM172.644 105.76C173.454 104.139 174.261 102.233 175.066 100.045L174.128 99.6995C173.332 101.863 172.539 103.733 171.75 105.312L172.644 105.76ZM175.065 100.048C175.905 97.819 176.445 95.8611 176.676 94.18L175.685 94.044C175.468 95.6269 174.953 97.509 174.129 99.6957L175.065 100.048ZM176.315 94.5938C177.427 94.2847 178.502 94.132 179.541 94.132V93.132C178.403 93.132 177.238 93.2993 176.047 93.6302L176.315 94.5938ZM179.541 94.132C180.589 94.132 181.436 94.3562 182.108 94.776L182.638 93.928C181.773 93.3878 180.732 93.132 179.541 93.132V94.132ZM182.108 94.776C182.708 95.1513 183.025 95.7297 183.025 96.608H184.025C184.025 95.4383 183.573 94.5127 182.638 93.928L182.108 94.776Z" fill="black"/>
</g>
<path d="M145.915 146.08C145.915 146.768 145.747 147.408 145.411 148C145.091 148.576 144.547 149.024 143.779 149.344C144.691 149.648 145.371 150.128 145.819 150.784C146.267 151.424 146.491 152.152 146.491 152.968C146.491 154.424 145.963 155.504 144.907 156.208C143.867 156.912 142.379 157.264 140.443 157.264C139.771 157.264 139.115 157.232 138.475 157.168C137.851 157.12 137.251 157.016 136.675 156.856C136.003 156.664 135.667 156.296 135.667 155.752V143.464C135.667 143 135.931 142.696 136.459 142.552C137.003 142.392 137.579 142.288 138.187 142.24C138.795 142.176 139.459 142.144 140.179 142.144C141.987 142.144 143.395 142.464 144.403 143.104C145.411 143.744 145.915 144.736 145.915 146.08ZM137.587 150.208V155.392C137.971 155.472 138.411 155.536 138.907 155.584C139.419 155.632 139.931 155.656 140.443 155.656C141.771 155.656 142.779 155.44 143.467 155.008C144.155 154.56 144.499 153.864 144.499 152.92C144.499 152.088 144.187 151.432 143.563 150.952C142.955 150.456 142.051 150.208 140.851 150.208H137.587ZM137.587 148.624H140.851C141.859 148.624 142.619 148.4 143.131 147.952C143.659 147.504 143.923 146.896 143.923 146.128C143.923 144.544 142.675 143.752 140.179 143.752C139.619 143.752 139.131 143.776 138.715 143.824C138.315 143.856 137.939 143.904 137.587 143.968V148.624ZM159.982 143.08C159.982 143.256 159.862 143.6 159.622 144.112C159.382 144.608 159.046 145.232 158.614 145.984C158.182 146.736 157.662 147.592 157.054 148.552C156.462 149.512 155.806 150.528 155.086 151.6V156.952C155.006 156.984 154.878 157.016 154.702 157.048C154.542 157.096 154.374 157.12 154.198 157.12C153.494 157.12 153.142 156.824 153.142 156.232V151.6C152.694 150.944 152.23 150.248 151.75 149.512C151.286 148.776 150.822 148.032 150.358 147.28C149.894 146.528 149.454 145.792 149.038 145.072C148.622 144.352 148.254 143.672 147.934 143.032C147.998 142.856 148.118 142.688 148.294 142.528C148.47 142.352 148.702 142.264 148.99 142.264C149.294 142.264 149.526 142.344 149.686 142.504C149.862 142.664 150.038 142.904 150.214 143.224C150.47 143.672 150.766 144.2 151.102 144.808C151.454 145.416 151.806 146.032 152.158 146.656C152.526 147.28 152.878 147.888 153.214 148.48C153.55 149.056 153.838 149.536 154.078 149.92H154.174C155.006 148.528 155.742 147.232 156.382 146.032C157.038 144.832 157.686 143.632 158.326 142.432C158.422 142.368 158.534 142.328 158.662 142.312C158.806 142.28 158.942 142.264 159.07 142.264C159.678 142.264 159.982 142.536 159.982 143.08ZM169.534 150.04V156.976C169.438 157.008 169.31 157.04 169.15 157.072C168.99 157.12 168.814 157.144 168.622 157.144C167.918 157.144 167.566 156.848 167.566 156.256V142.456C167.646 142.424 167.766 142.392 167.926 142.36C168.102 142.312 168.286 142.288 168.478 142.288C169.182 142.288 169.534 142.584 169.534 143.176V149.152L176.134 142.312C176.55 142.328 176.862 142.432 177.07 142.624C177.278 142.816 177.382 143.04 177.382 143.296C177.382 143.504 177.326 143.696 177.214 143.872C177.102 144.048 176.942 144.24 176.734 144.448L171.55 149.536C173.006 150.96 174.262 152.232 175.318 153.352C176.39 154.456 177.31 155.352 178.078 156.04C178.046 156.392 177.934 156.672 177.742 156.88C177.566 157.072 177.334 157.168 177.046 157.168C176.774 157.168 176.526 157.096 176.302 156.952C176.094 156.792 175.878 156.6 175.654 156.376L169.534 150.04ZM189.577 153.112H183.145C183.033 153.432 182.913 153.784 182.785 154.168C182.657 154.536 182.529 154.904 182.401 155.272C182.289 155.624 182.177 155.96 182.065 156.28C181.953 156.584 181.865 156.84 181.801 157.048C181.577 157.144 181.313 157.192 181.009 157.192C180.753 157.192 180.521 157.128 180.313 157C180.121 156.856 180.025 156.632 180.025 156.328C180.025 156.184 180.049 156.04 180.097 155.896C180.145 155.736 180.201 155.568 180.265 155.392C180.505 154.72 180.809 153.856 181.177 152.8C181.561 151.744 181.969 150.624 182.401 149.44C182.849 148.24 183.297 147.04 183.745 145.84C184.209 144.624 184.633 143.536 185.017 142.576C185.145 142.512 185.337 142.448 185.593 142.384C185.849 142.32 186.113 142.288 186.385 142.288C186.705 142.288 187.009 142.336 187.297 142.432C187.601 142.528 187.793 142.688 187.873 142.912C188.257 143.84 188.665 144.904 189.097 146.104C189.545 147.288 189.993 148.504 190.441 149.752C190.889 151 191.313 152.232 191.713 153.448C192.129 154.648 192.497 155.736 192.817 156.712C192.689 156.856 192.537 156.968 192.361 157.048C192.185 157.144 191.985 157.192 191.761 157.192C191.457 157.192 191.225 157.128 191.065 157C190.905 156.856 190.769 156.624 190.657 156.304L189.577 153.112ZM186.361 143.92C186.185 144.4 185.985 144.952 185.761 145.576C185.537 146.184 185.305 146.824 185.065 147.496C184.825 148.168 184.585 148.848 184.345 149.536C184.105 150.224 183.881 150.88 183.673 151.504H189.073C188.833 150.784 188.585 150.064 188.329 149.344C188.073 148.608 187.825 147.904 187.585 147.232C187.361 146.56 187.145 145.944 186.937 145.384C186.745 144.808 186.585 144.32 186.457 143.92H186.361ZM205.868 149.536C205.868 148.512 205.708 147.64 205.388 146.92C205.084 146.184 204.66 145.584 204.116 145.12C203.588 144.656 202.964 144.32 202.244 144.112C201.54 143.888 200.78 143.776 199.964 143.776C199.452 143.776 199.004 143.792 198.62 143.824C198.252 143.856 197.908 143.904 197.588 143.968V155.392C197.972 155.488 198.38 155.552 198.812 155.584C199.26 155.616 199.716 155.632 200.18 155.632C202.068 155.632 203.484 155.12 204.428 154.096C205.388 153.072 205.868 151.552 205.868 149.536ZM207.86 149.536C207.86 150.848 207.676 151.992 207.308 152.968C206.956 153.928 206.444 154.728 205.772 155.368C205.116 156.008 204.316 156.488 203.372 156.808C202.428 157.112 201.372 157.264 200.204 157.264C199.692 157.264 199.116 157.24 198.476 157.192C197.836 157.16 197.228 157.056 196.652 156.88C195.98 156.672 195.644 156.304 195.644 155.776V143.44C195.644 143.184 195.708 142.992 195.836 142.864C195.964 142.72 196.164 142.608 196.436 142.528C196.932 142.368 197.492 142.264 198.116 142.216C198.74 142.168 199.364 142.144 199.988 142.144C201.156 142.144 202.22 142.304 203.18 142.624C204.156 142.928 204.988 143.392 205.676 144.016C206.364 144.624 206.9 145.392 207.284 146.32C207.668 147.232 207.86 148.304 207.86 149.536ZM213.268 156.952C213.188 156.984 213.068 157.016 212.908 157.048C212.748 157.096 212.572 157.12 212.38 157.12C211.676 157.12 211.324 156.824 211.324 156.232V142.456C211.404 142.424 211.524 142.392 211.684 142.36C211.86 142.312 212.044 142.288 212.236 142.288C212.924 142.288 213.268 142.584 213.268 143.176V156.952ZM230.69 153.208C230.578 153.288 230.426 153.36 230.234 153.424C230.058 153.488 229.858 153.52 229.634 153.52C229.378 153.52 229.146 153.48 228.938 153.4C228.746 153.32 228.61 153.192 228.53 153.016C227.666 151.224 226.922 149.584 226.298 148.096C225.674 146.608 225.17 145.376 224.786 144.4H224.69C224.642 145.6 224.586 146.72 224.522 147.76C224.474 148.784 224.418 149.792 224.354 150.784C224.29 151.76 224.226 152.752 224.162 153.76C224.098 154.768 224.034 155.848 223.97 157C223.874 157.032 223.746 157.064 223.586 157.096C223.442 157.128 223.282 157.144 223.106 157.144C222.754 157.144 222.506 157.072 222.362 156.928C222.218 156.784 222.146 156.576 222.146 156.304C222.146 156.144 222.154 155.8 222.17 155.272C222.202 154.744 222.242 154.104 222.29 153.352C222.338 152.6 222.386 151.768 222.434 150.856C222.498 149.944 222.562 149.016 222.626 148.072C222.706 147.128 222.778 146.2 222.842 145.288C222.922 144.376 222.994 143.544 223.058 142.792C223.186 142.68 223.37 142.576 223.61 142.48C223.85 142.384 224.122 142.336 224.426 142.336C225.162 142.336 225.674 142.632 225.962 143.224C226.266 143.848 226.57 144.512 226.874 145.216C227.194 145.904 227.506 146.608 227.81 147.328C228.13 148.048 228.434 148.76 228.722 149.464C229.026 150.168 229.314 150.84 229.586 151.48H229.682C230.034 150.632 230.386 149.8 230.738 148.984C231.09 148.152 231.434 147.352 231.77 146.584C232.106 145.816 232.426 145.096 232.73 144.424C233.034 143.752 233.306 143.136 233.546 142.576C233.69 142.496 233.874 142.44 234.098 142.408C234.322 142.36 234.53 142.336 234.722 142.336C235.474 142.336 235.906 142.592 236.018 143.104C236.082 143.392 236.154 143.872 236.234 144.544C236.314 145.2 236.394 145.96 236.474 146.824C236.554 147.688 236.626 148.616 236.69 149.608C236.77 150.6 236.842 151.56 236.906 152.488C236.97 153.4 237.026 154.248 237.074 155.032C237.122 155.8 237.162 156.408 237.194 156.856C236.906 157.048 236.57 157.144 236.186 157.144C235.946 157.144 235.73 157.088 235.538 156.976C235.362 156.848 235.258 156.624 235.226 156.304C235.146 155.136 235.074 153.976 235.01 152.824C234.946 151.672 234.882 150.576 234.818 149.536C234.77 148.496 234.722 147.544 234.674 146.68C234.626 145.8 234.586 145.056 234.554 144.448H234.458C234.282 144.896 234.074 145.4 233.834 145.96C233.61 146.52 233.338 147.152 233.018 147.856C232.714 148.56 232.37 149.36 231.986 150.256C231.602 151.136 231.17 152.12 230.69 153.208ZM239.478 155.992C239.478 155.608 239.59 155.288 239.814 155.032C240.054 154.776 240.382 154.648 240.798 154.648C241.214 154.648 241.534 154.776 241.758 155.032C241.982 155.288 242.094 155.608 242.094 155.992C242.094 156.36 241.982 156.672 241.758 156.928C241.534 157.184 241.214 157.312 240.798 157.312C240.382 157.312 240.054 157.184 239.814 156.928C239.59 156.672 239.478 156.36 239.478 155.992Z" fill="black"/>
<defs>
<filter id="filter0_i" x="14.3161" y="33.748" width="221.319" height="99.04" filterUnits="userSpaceOnUse" color-interpolation-filters="sRGB">
<feFlood flood-opacity="0" result="BackgroundImageFix"/>
<feBlend mode="normal" in="SourceGraphic" in2="BackgroundImageFix" result="shape"/>
<feColorMatrix in="SourceAlpha" type="matrix" values="0 0 0 0 0 0 0 0 0 0 0 0 0 0 0 0 0 0 127 0" result="hardAlpha"/>
<feOffset dy="4"/>
<feGaussianBlur stdDeviation="2"/>
<feComposite in2="hardAlpha" operator="arithmetic" k2="-1" k3="1"/>
<feColorMatrix type="matrix" values="0 0 0 0 0 0 0 0 0 0 0 0 0 0 0 0 0 0 0.25 0"/>
<feBlend mode="normal" in2="shape" result="effect1_innerShadow"/>
</filter>
</defs>
</svg>
